<?xml version="1.0" encoding="utf-8" standalone="no"?>
<!DOCTYPE svg PUBLIC "-//W3C//DTD SVG 1.1//EN"
  "http://www.w3.org/Graphics/SVG/1.1/DTD/svg11.dtd">
<svg xmlns:xlink="http://www.w3.org/1999/xlink" width="432pt" height="288pt" viewBox="0 0 432 288" xmlns="http://www.w3.org/2000/svg" version="1.1">
 <metadata>
  <rdf:RDF xmlns:dc="http://purl.org/dc/elements/1.1/" xmlns:cc="http://creativecommons.org/ns#" xmlns:rdf="http://www.w3.org/1999/02/22-rdf-syntax-ns#">
   <cc:Work>
    <dc:type rdf:resource="http://purl.org/dc/dcmitype/StillImage"/>
    <dc:date>2022-04-12T10:14:04.956721</dc:date>
    <dc:format>image/svg+xml</dc:format>
    <dc:creator>
     <cc:Agent>
      <dc:title>Matplotlib v3.5.1, https://matplotlib.org/</dc:title>
     </cc:Agent>
    </dc:creator>
   </cc:Work>
  </rdf:RDF>
 </metadata>
 <defs>
  <style type="text/css">*{stroke-linejoin: round; stroke-linecap: butt}</style>
 </defs>
 <g id="figure_1">
  <g id="patch_1">
   <path d="M 0 288 
L 432 288 
L 432 0 
L 0 0 
L 0 288 
z
" style="fill: none"/>
  </g>
  <g id="axes_1">
   <g id="patch_2">
    <path d="M 50.565625 246.84375 
L 410.067188 246.84375 
L 410.067188 25.918125 
L 50.565625 25.918125 
z
" style="fill: #ffffff"/>
   </g>
   <g id="patch_3">
    <path d="M 62.106474 246.84375 
L 64.178871 246.84375 
L 64.178871 224.751187 
L 62.106474 224.751187 
z
" clip-path="url(#pca38c3fc7c)" style="fill: #1f77b4"/>
   </g>
   <g id="patch_4">
    <path d="M 64.178871 246.84375 
L 66.251268 246.84375 
L 66.251268 192.616551 
L 64.178871 192.616551 
z
" clip-path="url(#pca38c3fc7c)" style="fill: #1f77b4"/>
   </g>
   <g id="patch_5">
    <path d="M 66.251268 246.84375 
L 68.323666 246.84375 
L 68.323666 170.523989 
L 66.251268 170.523989 
z
" clip-path="url(#pca38c3fc7c)" style="fill: #1f77b4"/>
   </g>
   <g id="patch_6">
    <path d="M 68.323666 246.84375 
L 70.396063 246.84375 
L 70.396063 100.229472 
L 68.323666 100.229472 
z
" clip-path="url(#pca38c3fc7c)" style="fill: #1f77b4"/>
   </g>
   <g id="patch_7">
    <path d="M 70.396063 246.84375 
L 72.46846 246.84375 
L 72.46846 88.178983 
L 70.396063 88.178983 
z
" clip-path="url(#pca38c3fc7c)" style="fill: #1f77b4"/>
   </g>
   <g id="patch_8">
    <path d="M 72.46846 246.84375 
L 74.540857 246.84375 
L 74.540857 96.212642 
L 72.46846 96.212642 
z
" clip-path="url(#pca38c3fc7c)" style="fill: #1f77b4"/>
   </g>
   <g id="patch_9">
    <path d="M 74.540857 246.84375 
L 76.613254 246.84375 
L 76.613254 54.035932 
L 74.540857 54.035932 
z
" clip-path="url(#pca38c3fc7c)" style="fill: #1f77b4"/>
   </g>
   <g id="patch_10">
    <path d="M 76.613254 246.84375 
L 78.685651 246.84375 
L 78.685651 33.951784 
L 76.613254 33.951784 
z
" clip-path="url(#pca38c3fc7c)" style="fill: #1f77b4"/>
   </g>
   <g id="patch_11">
    <path d="M 78.685651 246.84375 
L 80.758048 246.84375 
L 80.758048 41.985443 
L 78.685651 41.985443 
z
" clip-path="url(#pca38c3fc7c)" style="fill: #1f77b4"/>
   </g>
   <g id="patch_12">
    <path d="M 80.758048 246.84375 
L 82.830445 246.84375 
L 82.830445 60.061176 
L 80.758048 60.061176 
z
" clip-path="url(#pca38c3fc7c)" style="fill: #1f77b4"/>
   </g>
   <g id="patch_13">
    <path d="M 82.830445 246.84375 
L 84.902842 246.84375 
L 84.902842 62.069591 
L 82.830445 62.069591 
z
" clip-path="url(#pca38c3fc7c)" style="fill: #1f77b4"/>
   </g>
   <g id="patch_14">
    <path d="M 84.902842 246.84375 
L 86.975239 246.84375 
L 86.975239 88.178983 
L 84.902842 88.178983 
z
" clip-path="url(#pca38c3fc7c)" style="fill: #1f77b4"/>
   </g>
   <g id="patch_15">
    <path d="M 86.975239 246.84375 
L 89.047636 246.84375 
L 89.047636 48.010687 
L 86.975239 48.010687 
z
" clip-path="url(#pca38c3fc7c)" style="fill: #1f77b4"/>
   </g>
   <g id="patch_16">
    <path d="M 89.047636 246.84375 
L 91.120033 246.84375 
L 91.120033 66.08642 
L 89.047636 66.08642 
z
" clip-path="url(#pca38c3fc7c)" style="fill: #1f77b4"/>
   </g>
   <g id="patch_17">
    <path d="M 91.120033 246.84375 
L 93.192431 246.84375 
L 93.192431 96.212642 
L 91.120033 96.212642 
z
" clip-path="url(#pca38c3fc7c)" style="fill: #1f77b4"/>
   </g>
   <g id="patch_18">
    <path d="M 93.192431 246.84375 
L 95.264828 246.84375 
L 95.264828 50.019102 
L 93.192431 50.019102 
z
" clip-path="url(#pca38c3fc7c)" style="fill: #1f77b4"/>
   </g>
   <g id="patch_19">
    <path d="M 95.264828 246.84375 
L 97.337225 246.84375 
L 97.337225 78.136909 
L 95.264828 78.136909 
z
" clip-path="url(#pca38c3fc7c)" style="fill: #1f77b4"/>
   </g>
   <g id="patch_20">
    <path d="M 97.337225 246.84375 
L 99.409622 246.84375 
L 99.409622 74.12008 
L 97.337225 74.12008 
z
" clip-path="url(#pca38c3fc7c)" style="fill: #1f77b4"/>
   </g>
   <g id="patch_21">
    <path d="M 99.409622 246.84375 
L 101.482019 246.84375 
L 101.482019 72.111665 
L 99.409622 72.111665 
z
" clip-path="url(#pca38c3fc7c)" style="fill: #1f77b4"/>
   </g>
   <g id="patch_22">
    <path d="M 101.482019 246.84375 
L 103.554416 246.84375 
L 103.554416 60.061176 
L 101.482019 60.061176 
z
" clip-path="url(#pca38c3fc7c)" style="fill: #1f77b4"/>
   </g>
   <g id="patch_23">
    <path d="M 103.554416 246.84375 
L 105.626813 246.84375 
L 105.626813 70.10325 
L 103.554416 70.10325 
z
" clip-path="url(#pca38c3fc7c)" style="fill: #1f77b4"/>
   </g>
   <g id="patch_24">
    <path d="M 105.626813 246.84375 
L 107.69921 246.84375 
L 107.69921 96.212642 
L 105.626813 96.212642 
z
" clip-path="url(#pca38c3fc7c)" style="fill: #1f77b4"/>
   </g>
   <g id="patch_25">
    <path d="M 107.69921 246.84375 
L 109.771607 246.84375 
L 109.771607 88.178983 
L 107.69921 88.178983 
z
" clip-path="url(#pca38c3fc7c)" style="fill: #1f77b4"/>
   </g>
   <g id="patch_26">
    <path d="M 109.771607 246.84375 
L 111.844004 246.84375 
L 111.844004 56.044347 
L 109.771607 56.044347 
z
" clip-path="url(#pca38c3fc7c)" style="fill: #1f77b4"/>
   </g>
   <g id="patch_27">
    <path d="M 111.844004 246.84375 
L 113.916401 246.84375 
L 113.916401 118.305205 
L 111.844004 118.305205 
z
" clip-path="url(#pca38c3fc7c)" style="fill: #1f77b4"/>
   </g>
   <g id="patch_28">
    <path d="M 113.916401 246.84375 
L 115.988798 246.84375 
L 115.988798 68.094835 
L 113.916401 68.094835 
z
" clip-path="url(#pca38c3fc7c)" style="fill: #1f77b4"/>
   </g>
   <g id="patch_29">
    <path d="M 115.988798 246.84375 
L 118.061196 246.84375 
L 118.061196 108.263131 
L 115.988798 108.263131 
z
" clip-path="url(#pca38c3fc7c)" style="fill: #1f77b4"/>
   </g>
   <g id="patch_30">
    <path d="M 118.061196 246.84375 
L 120.133593 246.84375 
L 120.133593 102.237886 
L 118.061196 102.237886 
z
" clip-path="url(#pca38c3fc7c)" style="fill: #1f77b4"/>
   </g>
   <g id="patch_31">
    <path d="M 120.133593 246.84375 
L 122.20599 246.84375 
L 122.20599 134.372523 
L 120.133593 134.372523 
z
" clip-path="url(#pca38c3fc7c)" style="fill: #1f77b4"/>
   </g>
   <g id="patch_32">
    <path d="M 122.20599 246.84375 
L 124.278387 246.84375 
L 124.278387 110.271545 
L 122.20599 110.271545 
z
" clip-path="url(#pca38c3fc7c)" style="fill: #1f77b4"/>
   </g>
   <g id="patch_33">
    <path d="M 124.278387 246.84375 
L 126.350784 246.84375 
L 126.350784 138.389352 
L 124.278387 138.389352 
z
" clip-path="url(#pca38c3fc7c)" style="fill: #1f77b4"/>
   </g>
   <g id="patch_34">
    <path d="M 126.350784 246.84375 
L 128.423181 246.84375 
L 128.423181 134.372523 
L 126.350784 134.372523 
z
" clip-path="url(#pca38c3fc7c)" style="fill: #1f77b4"/>
   </g>
   <g id="patch_35">
    <path d="M 128.423181 246.84375 
L 130.495578 246.84375 
L 130.495578 112.27996 
L 128.423181 112.27996 
z
" clip-path="url(#pca38c3fc7c)" style="fill: #1f77b4"/>
   </g>
   <g id="patch_36">
    <path d="M 130.495578 246.84375 
L 132.567975 246.84375 
L 132.567975 162.49033 
L 130.495578 162.49033 
z
" clip-path="url(#pca38c3fc7c)" style="fill: #1f77b4"/>
   </g>
   <g id="patch_37">
    <path d="M 132.567975 246.84375 
L 134.640372 246.84375 
L 134.640372 122.322034 
L 132.567975 122.322034 
z
" clip-path="url(#pca38c3fc7c)" style="fill: #1f77b4"/>
   </g>
   <g id="patch_38">
    <path d="M 134.640372 246.84375 
L 136.712769 246.84375 
L 136.712769 152.448256 
L 134.640372 152.448256 
z
" clip-path="url(#pca38c3fc7c)" style="fill: #1f77b4"/>
   </g>
   <g id="patch_39">
    <path d="M 136.712769 246.84375 
L 138.785166 246.84375 
L 138.785166 126.338864 
L 136.712769 126.338864 
z
" clip-path="url(#pca38c3fc7c)" style="fill: #1f77b4"/>
   </g>
   <g id="patch_40">
    <path d="M 138.785166 246.84375 
L 140.857563 246.84375 
L 140.857563 132.364108 
L 138.785166 132.364108 
z
" clip-path="url(#pca38c3fc7c)" style="fill: #1f77b4"/>
   </g>
   <g id="patch_41">
    <path d="M 140.857563 246.84375 
L 142.929961 246.84375 
L 142.929961 172.532403 
L 140.857563 172.532403 
z
" clip-path="url(#pca38c3fc7c)" style="fill: #1f77b4"/>
   </g>
   <g id="patch_42">
    <path d="M 142.929961 246.84375 
L 145.002358 246.84375 
L 145.002358 142.406182 
L 142.929961 142.406182 
z
" clip-path="url(#pca38c3fc7c)" style="fill: #1f77b4"/>
   </g>
   <g id="patch_43">
    <path d="M 145.002358 246.84375 
L 147.074755 246.84375 
L 147.074755 168.515574 
L 145.002358 168.515574 
z
" clip-path="url(#pca38c3fc7c)" style="fill: #1f77b4"/>
   </g>
   <g id="patch_44">
    <path d="M 147.074755 246.84375 
L 149.147152 246.84375 
L 149.147152 158.4735 
L 147.074755 158.4735 
z
" clip-path="url(#pca38c3fc7c)" style="fill: #1f77b4"/>
   </g>
   <g id="patch_45">
    <path d="M 149.147152 246.84375 
L 151.219549 246.84375 
L 151.219549 156.465085 
L 149.147152 156.465085 
z
" clip-path="url(#pca38c3fc7c)" style="fill: #1f77b4"/>
   </g>
   <g id="patch_46">
    <path d="M 151.219549 246.84375 
L 153.291946 246.84375 
L 153.291946 152.448256 
L 151.219549 152.448256 
z
" clip-path="url(#pca38c3fc7c)" style="fill: #1f77b4"/>
   </g>
   <g id="patch_47">
    <path d="M 153.291946 246.84375 
L 155.364343 246.84375 
L 155.364343 166.507159 
L 153.291946 166.507159 
z
" clip-path="url(#pca38c3fc7c)" style="fill: #1f77b4"/>
   </g>
   <g id="patch_48">
    <path d="M 155.364343 246.84375 
L 157.43674 246.84375 
L 157.43674 156.465085 
L 155.364343 156.465085 
z
" clip-path="url(#pca38c3fc7c)" style="fill: #1f77b4"/>
   </g>
   <g id="patch_49">
    <path d="M 157.43674 246.84375 
L 159.509137 246.84375 
L 159.509137 172.532403 
L 157.43674 172.532403 
z
" clip-path="url(#pca38c3fc7c)" style="fill: #1f77b4"/>
   </g>
   <g id="patch_50">
    <path d="M 159.509137 246.84375 
L 161.581534 246.84375 
L 161.581534 176.549233 
L 159.509137 176.549233 
z
" clip-path="url(#pca38c3fc7c)" style="fill: #1f77b4"/>
   </g>
   <g id="patch_51">
    <path d="M 161.581534 246.84375 
L 163.653931 246.84375 
L 163.653931 166.507159 
L 161.581534 166.507159 
z
" clip-path="url(#pca38c3fc7c)" style="fill: #1f77b4"/>
   </g>
   <g id="patch_52">
    <path d="M 163.653931 246.84375 
L 165.726328 246.84375 
L 165.726328 172.532403 
L 163.653931 172.532403 
z
" clip-path="url(#pca38c3fc7c)" style="fill: #1f77b4"/>
   </g>
   <g id="patch_53">
    <path d="M 165.726328 246.84375 
L 167.798726 246.84375 
L 167.798726 190.608136 
L 165.726328 190.608136 
z
" clip-path="url(#pca38c3fc7c)" style="fill: #1f77b4"/>
   </g>
   <g id="patch_54">
    <path d="M 167.798726 246.84375 
L 169.871123 246.84375 
L 169.871123 180.566062 
L 167.798726 180.566062 
z
" clip-path="url(#pca38c3fc7c)" style="fill: #1f77b4"/>
   </g>
   <g id="patch_55">
    <path d="M 169.871123 246.84375 
L 171.94352 246.84375 
L 171.94352 170.523989 
L 169.871123 170.523989 
z
" clip-path="url(#pca38c3fc7c)" style="fill: #1f77b4"/>
   </g>
   <g id="patch_56">
    <path d="M 171.94352 246.84375 
L 174.015917 246.84375 
L 174.015917 178.557648 
L 171.94352 178.557648 
z
" clip-path="url(#pca38c3fc7c)" style="fill: #1f77b4"/>
   </g>
   <g id="patch_57">
    <path d="M 174.015917 246.84375 
L 176.088314 246.84375 
L 176.088314 192.616551 
L 174.015917 192.616551 
z
" clip-path="url(#pca38c3fc7c)" style="fill: #1f77b4"/>
   </g>
   <g id="patch_58">
    <path d="M 176.088314 246.84375 
L 178.160711 246.84375 
L 178.160711 204.66704 
L 176.088314 204.66704 
z
" clip-path="url(#pca38c3fc7c)" style="fill: #1f77b4"/>
   </g>
   <g id="patch_59">
    <path d="M 178.160711 246.84375 
L 180.233108 246.84375 
L 180.233108 174.540818 
L 178.160711 174.540818 
z
" clip-path="url(#pca38c3fc7c)" style="fill: #1f77b4"/>
   </g>
   <g id="patch_60">
    <path d="M 180.233108 246.84375 
L 182.305505 246.84375 
L 182.305505 186.591307 
L 180.233108 186.591307 
z
" clip-path="url(#pca38c3fc7c)" style="fill: #1f77b4"/>
   </g>
   <g id="patch_61">
    <path d="M 182.305505 246.84375 
L 184.377902 246.84375 
L 184.377902 170.523989 
L 182.305505 170.523989 
z
" clip-path="url(#pca38c3fc7c)" style="fill: #1f77b4"/>
   </g>
   <g id="patch_62">
    <path d="M 184.377902 246.84375 
L 186.450299 246.84375 
L 186.450299 186.591307 
L 184.377902 186.591307 
z
" clip-path="url(#pca38c3fc7c)" style="fill: #1f77b4"/>
   </g>
   <g id="patch_63">
    <path d="M 186.450299 246.84375 
L 188.522696 246.84375 
L 188.522696 186.591307 
L 186.450299 186.591307 
z
" clip-path="url(#pca38c3fc7c)" style="fill: #1f77b4"/>
   </g>
   <g id="patch_64">
    <path d="M 188.522696 246.84375 
L 190.595093 246.84375 
L 190.595093 190.608136 
L 188.522696 190.608136 
z
" clip-path="url(#pca38c3fc7c)" style="fill: #1f77b4"/>
   </g>
   <g id="patch_65">
    <path d="M 190.595093 246.84375 
L 192.667491 246.84375 
L 192.667491 192.616551 
L 190.595093 192.616551 
z
" clip-path="url(#pca38c3fc7c)" style="fill: #1f77b4"/>
   </g>
   <g id="patch_66">
    <path d="M 192.667491 246.84375 
L 194.739888 246.84375 
L 194.739888 184.582892 
L 192.667491 184.582892 
z
" clip-path="url(#pca38c3fc7c)" style="fill: #1f77b4"/>
   </g>
   <g id="patch_67">
    <path d="M 194.739888 246.84375 
L 196.812285 246.84375 
L 196.812285 196.633381 
L 194.739888 196.633381 
z
" clip-path="url(#pca38c3fc7c)" style="fill: #1f77b4"/>
   </g>
   <g id="patch_68">
    <path d="M 196.812285 246.84375 
L 198.884682 246.84375 
L 198.884682 204.66704 
L 196.812285 204.66704 
z
" clip-path="url(#pca38c3fc7c)" style="fill: #1f77b4"/>
   </g>
   <g id="patch_69">
    <path d="M 198.884682 246.84375 
L 200.957079 246.84375 
L 200.957079 220.734358 
L 198.884682 220.734358 
z
" clip-path="url(#pca38c3fc7c)" style="fill: #1f77b4"/>
   </g>
   <g id="patch_70">
    <path d="M 200.957079 246.84375 
L 203.029476 246.84375 
L 203.029476 212.700699 
L 200.957079 212.700699 
z
" clip-path="url(#pca38c3fc7c)" style="fill: #1f77b4"/>
   </g>
   <g id="patch_71">
    <path d="M 203.029476 246.84375 
L 205.101873 246.84375 
L 205.101873 200.65021 
L 203.029476 200.65021 
z
" clip-path="url(#pca38c3fc7c)" style="fill: #1f77b4"/>
   </g>
   <g id="patch_72">
    <path d="M 205.101873 246.84375 
L 207.17427 246.84375 
L 207.17427 202.658625 
L 205.101873 202.658625 
z
" clip-path="url(#pca38c3fc7c)" style="fill: #1f77b4"/>
   </g>
   <g id="patch_73">
    <path d="M 207.17427 246.84375 
L 209.246667 246.84375 
L 209.246667 200.65021 
L 207.17427 200.65021 
z
" clip-path="url(#pca38c3fc7c)" style="fill: #1f77b4"/>
   </g>
   <g id="patch_74">
    <path d="M 209.246667 246.84375 
L 211.319064 246.84375 
L 211.319064 218.725943 
L 209.246667 218.725943 
z
" clip-path="url(#pca38c3fc7c)" style="fill: #1f77b4"/>
   </g>
   <g id="patch_75">
    <path d="M 211.319064 246.84375 
L 213.391461 246.84375 
L 213.391461 208.683869 
L 211.319064 208.683869 
z
" clip-path="url(#pca38c3fc7c)" style="fill: #1f77b4"/>
   </g>
   <g id="patch_76">
    <path d="M 213.391461 246.84375 
L 215.463858 246.84375 
L 215.463858 196.633381 
L 213.391461 196.633381 
z
" clip-path="url(#pca38c3fc7c)" style="fill: #1f77b4"/>
   </g>
   <g id="patch_77">
    <path d="M 215.463858 246.84375 
L 217.536256 246.84375 
L 217.536256 192.616551 
L 215.463858 192.616551 
z
" clip-path="url(#pca38c3fc7c)" style="fill: #1f77b4"/>
   </g>
   <g id="patch_78">
    <path d="M 217.536256 246.84375 
L 219.608653 246.84375 
L 219.608653 208.683869 
L 217.536256 208.683869 
z
" clip-path="url(#pca38c3fc7c)" style="fill: #1f77b4"/>
   </g>
   <g id="patch_79">
    <path d="M 219.608653 246.84375 
L 221.68105 246.84375 
L 221.68105 204.66704 
L 219.608653 204.66704 
z
" clip-path="url(#pca38c3fc7c)" style="fill: #1f77b4"/>
   </g>
   <g id="patch_80">
    <path d="M 221.68105 246.84375 
L 223.753447 246.84375 
L 223.753447 210.692284 
L 221.68105 210.692284 
z
" clip-path="url(#pca38c3fc7c)" style="fill: #1f77b4"/>
   </g>
   <g id="patch_81">
    <path d="M 223.753447 246.84375 
L 225.825844 246.84375 
L 225.825844 204.66704 
L 223.753447 204.66704 
z
" clip-path="url(#pca38c3fc7c)" style="fill: #1f77b4"/>
   </g>
   <g id="patch_82">
    <path d="M 225.825844 246.84375 
L 227.898241 246.84375 
L 227.898241 200.65021 
L 225.825844 200.65021 
z
" clip-path="url(#pca38c3fc7c)" style="fill: #1f77b4"/>
   </g>
   <g id="patch_83">
    <path d="M 227.898241 246.84375 
L 229.970638 246.84375 
L 229.970638 204.66704 
L 227.898241 204.66704 
z
" clip-path="url(#pca38c3fc7c)" style="fill: #1f77b4"/>
   </g>
   <g id="patch_84">
    <path d="M 229.970638 246.84375 
L 232.043035 246.84375 
L 232.043035 212.700699 
L 229.970638 212.700699 
z
" clip-path="url(#pca38c3fc7c)" style="fill: #1f77b4"/>
   </g>
   <g id="patch_85">
    <path d="M 232.043035 246.84375 
L 234.115432 246.84375 
L 234.115432 218.725943 
L 232.043035 218.725943 
z
" clip-path="url(#pca38c3fc7c)" style="fill: #1f77b4"/>
   </g>
   <g id="patch_86">
    <path d="M 234.115432 246.84375 
L 236.187829 246.84375 
L 236.187829 206.675455 
L 234.115432 206.675455 
z
" clip-path="url(#pca38c3fc7c)" style="fill: #1f77b4"/>
   </g>
   <g id="patch_87">
    <path d="M 236.187829 246.84375 
L 238.260226 246.84375 
L 238.260226 226.759602 
L 236.187829 226.759602 
z
" clip-path="url(#pca38c3fc7c)" style="fill: #1f77b4"/>
   </g>
   <g id="patch_88">
    <path d="M 238.260226 246.84375 
L 240.332623 246.84375 
L 240.332623 216.717528 
L 238.260226 216.717528 
z
" clip-path="url(#pca38c3fc7c)" style="fill: #1f77b4"/>
   </g>
   <g id="patch_89">
    <path d="M 240.332623 246.84375 
L 242.405021 246.84375 
L 242.405021 218.725943 
L 240.332623 218.725943 
z
" clip-path="url(#pca38c3fc7c)" style="fill: #1f77b4"/>
   </g>
   <g id="patch_90">
    <path d="M 242.405021 246.84375 
L 244.477418 246.84375 
L 244.477418 212.700699 
L 242.405021 212.700699 
z
" clip-path="url(#pca38c3fc7c)" style="fill: #1f77b4"/>
   </g>
   <g id="patch_91">
    <path d="M 244.477418 246.84375 
L 246.549815 246.84375 
L 246.549815 208.683869 
L 244.477418 208.683869 
z
" clip-path="url(#pca38c3fc7c)" style="fill: #1f77b4"/>
   </g>
   <g id="patch_92">
    <path d="M 246.549815 246.84375 
L 248.622212 246.84375 
L 248.622212 216.717528 
L 246.549815 216.717528 
z
" clip-path="url(#pca38c3fc7c)" style="fill: #1f77b4"/>
   </g>
   <g id="patch_93">
    <path d="M 248.622212 246.84375 
L 250.694609 246.84375 
L 250.694609 224.751187 
L 248.622212 224.751187 
z
" clip-path="url(#pca38c3fc7c)" style="fill: #1f77b4"/>
   </g>
   <g id="patch_94">
    <path d="M 250.694609 246.84375 
L 252.767006 246.84375 
L 252.767006 224.751187 
L 250.694609 224.751187 
z
" clip-path="url(#pca38c3fc7c)" style="fill: #1f77b4"/>
   </g>
   <g id="patch_95">
    <path d="M 252.767006 246.84375 
L 254.839403 246.84375 
L 254.839403 228.768017 
L 252.767006 228.768017 
z
" clip-path="url(#pca38c3fc7c)" style="fill: #1f77b4"/>
   </g>
   <g id="patch_96">
    <path d="M 254.839403 246.84375 
L 256.9118 246.84375 
L 256.9118 228.768017 
L 254.839403 228.768017 
z
" clip-path="url(#pca38c3fc7c)" style="fill: #1f77b4"/>
   </g>
   <g id="patch_97">
    <path d="M 256.9118 246.84375 
L 258.984197 246.84375 
L 258.984197 218.725943 
L 256.9118 218.725943 
z
" clip-path="url(#pca38c3fc7c)" style="fill: #1f77b4"/>
   </g>
   <g id="patch_98">
    <path d="M 258.984197 246.84375 
L 261.056594 246.84375 
L 261.056594 222.742773 
L 258.984197 222.742773 
z
" clip-path="url(#pca38c3fc7c)" style="fill: #1f77b4"/>
   </g>
   <g id="patch_99">
    <path d="M 261.056594 246.84375 
L 263.128991 246.84375 
L 263.128991 226.759602 
L 261.056594 226.759602 
z
" clip-path="url(#pca38c3fc7c)" style="fill: #1f77b4"/>
   </g>
   <g id="patch_100">
    <path d="M 263.128991 246.84375 
L 265.201388 246.84375 
L 265.201388 220.734358 
L 263.128991 220.734358 
z
" clip-path="url(#pca38c3fc7c)" style="fill: #1f77b4"/>
   </g>
   <g id="patch_101">
    <path d="M 265.201388 246.84375 
L 267.273785 246.84375 
L 267.273785 222.742773 
L 265.201388 222.742773 
z
" clip-path="url(#pca38c3fc7c)" style="fill: #1f77b4"/>
   </g>
   <g id="patch_102">
    <path d="M 267.273785 246.84375 
L 269.346183 246.84375 
L 269.346183 220.734358 
L 267.273785 220.734358 
z
" clip-path="url(#pca38c3fc7c)" style="fill: #1f77b4"/>
   </g>
   <g id="patch_103">
    <path d="M 269.346183 246.84375 
L 271.41858 246.84375 
L 271.41858 218.725943 
L 269.346183 218.725943 
z
" clip-path="url(#pca38c3fc7c)" style="fill: #1f77b4"/>
   </g>
   <g id="patch_104">
    <path d="M 271.41858 246.84375 
L 273.490977 246.84375 
L 273.490977 234.793261 
L 271.41858 234.793261 
z
" clip-path="url(#pca38c3fc7c)" style="fill: #1f77b4"/>
   </g>
   <g id="patch_105">
    <path d="M 273.490977 246.84375 
L 275.563374 246.84375 
L 275.563374 234.793261 
L 273.490977 234.793261 
z
" clip-path="url(#pca38c3fc7c)" style="fill: #1f77b4"/>
   </g>
   <g id="patch_106">
    <path d="M 275.563374 246.84375 
L 277.635771 246.84375 
L 277.635771 234.793261 
L 275.563374 234.793261 
z
" clip-path="url(#pca38c3fc7c)" style="fill: #1f77b4"/>
   </g>
   <g id="patch_107">
    <path d="M 277.635771 246.84375 
L 279.708168 246.84375 
L 279.708168 230.776432 
L 277.635771 230.776432 
z
" clip-path="url(#pca38c3fc7c)" style="fill: #1f77b4"/>
   </g>
   <g id="patch_108">
    <path d="M 279.708168 246.84375 
L 281.780565 246.84375 
L 281.780565 224.751187 
L 279.708168 224.751187 
z
" clip-path="url(#pca38c3fc7c)" style="fill: #1f77b4"/>
   </g>
   <g id="patch_109">
    <path d="M 281.780565 246.84375 
L 283.852962 246.84375 
L 283.852962 218.725943 
L 281.780565 218.725943 
z
" clip-path="url(#pca38c3fc7c)" style="fill: #1f77b4"/>
   </g>
   <g id="patch_110">
    <path d="M 283.852962 246.84375 
L 285.925359 246.84375 
L 285.925359 232.784847 
L 283.852962 232.784847 
z
" clip-path="url(#pca38c3fc7c)" style="fill: #1f77b4"/>
   </g>
   <g id="patch_111">
    <path d="M 285.925359 246.84375 
L 287.997756 246.84375 
L 287.997756 224.751187 
L 285.925359 224.751187 
z
" clip-path="url(#pca38c3fc7c)" style="fill: #1f77b4"/>
   </g>
   <g id="patch_112">
    <path d="M 287.997756 246.84375 
L 290.070153 246.84375 
L 290.070153 228.768017 
L 287.997756 228.768017 
z
" clip-path="url(#pca38c3fc7c)" style="fill: #1f77b4"/>
   </g>
   <g id="patch_113">
    <path d="M 290.070153 246.84375 
L 292.14255 246.84375 
L 292.14255 234.793261 
L 290.070153 234.793261 
z
" clip-path="url(#pca38c3fc7c)" style="fill: #1f77b4"/>
   </g>
   <g id="patch_114">
    <path d="M 292.14255 246.84375 
L 294.214948 246.84375 
L 294.214948 232.784847 
L 292.14255 232.784847 
z
" clip-path="url(#pca38c3fc7c)" style="fill: #1f77b4"/>
   </g>
   <g id="patch_115">
    <path d="M 294.214948 246.84375 
L 296.287345 246.84375 
L 296.287345 228.768017 
L 294.214948 228.768017 
z
" clip-path="url(#pca38c3fc7c)" style="fill: #1f77b4"/>
   </g>
   <g id="patch_116">
    <path d="M 296.287345 246.84375 
L 298.359742 246.84375 
L 298.359742 234.793261 
L 296.287345 234.793261 
z
" clip-path="url(#pca38c3fc7c)" style="fill: #1f77b4"/>
   </g>
   <g id="patch_117">
    <path d="M 298.359742 246.84375 
L 300.432139 246.84375 
L 300.432139 228.768017 
L 298.359742 228.768017 
z
" clip-path="url(#pca38c3fc7c)" style="fill: #1f77b4"/>
   </g>
   <g id="patch_118">
    <path d="M 300.432139 246.84375 
L 302.504536 246.84375 
L 302.504536 234.793261 
L 300.432139 234.793261 
z
" clip-path="url(#pca38c3fc7c)" style="fill: #1f77b4"/>
   </g>
   <g id="patch_119">
    <path d="M 302.504536 246.84375 
L 304.576933 246.84375 
L 304.576933 232.784847 
L 302.504536 232.784847 
z
" clip-path="url(#pca38c3fc7c)" style="fill: #1f77b4"/>
   </g>
   <g id="patch_120">
    <path d="M 304.576933 246.84375 
L 306.64933 246.84375 
L 306.64933 238.810091 
L 304.576933 238.810091 
z
" clip-path="url(#pca38c3fc7c)" style="fill: #1f77b4"/>
   </g>
   <g id="patch_121">
    <path d="M 306.64933 246.84375 
L 308.721727 246.84375 
L 308.721727 228.768017 
L 306.64933 228.768017 
z
" clip-path="url(#pca38c3fc7c)" style="fill: #1f77b4"/>
   </g>
   <g id="patch_122">
    <path d="M 308.721727 246.84375 
L 310.794124 246.84375 
L 310.794124 230.776432 
L 308.721727 230.776432 
z
" clip-path="url(#pca38c3fc7c)" style="fill: #1f77b4"/>
   </g>
   <g id="patch_123">
    <path d="M 310.794124 246.84375 
L 312.866521 246.84375 
L 312.866521 226.759602 
L 310.794124 226.759602 
z
" clip-path="url(#pca38c3fc7c)" style="fill: #1f77b4"/>
   </g>
   <g id="patch_124">
    <path d="M 312.866521 246.84375 
L 314.938918 246.84375 
L 314.938918 224.751187 
L 312.866521 224.751187 
z
" clip-path="url(#pca38c3fc7c)" style="fill: #1f77b4"/>
   </g>
   <g id="patch_125">
    <path d="M 314.938918 246.84375 
L 317.011315 246.84375 
L 317.011315 236.801676 
L 314.938918 236.801676 
z
" clip-path="url(#pca38c3fc7c)" style="fill: #1f77b4"/>
   </g>
   <g id="patch_126">
    <path d="M 317.011315 246.84375 
L 319.083713 246.84375 
L 319.083713 230.776432 
L 317.011315 230.776432 
z
" clip-path="url(#pca38c3fc7c)" style="fill: #1f77b4"/>
   </g>
   <g id="patch_127">
    <path d="M 319.083713 246.84375 
L 321.15611 246.84375 
L 321.15611 232.784847 
L 319.083713 232.784847 
z
" clip-path="url(#pca38c3fc7c)" style="fill: #1f77b4"/>
   </g>
   <g id="patch_128">
    <path d="M 321.15611 246.84375 
L 323.228507 246.84375 
L 323.228507 240.818506 
L 321.15611 240.818506 
z
" clip-path="url(#pca38c3fc7c)" style="fill: #1f77b4"/>
   </g>
   <g id="patch_129">
    <path d="M 323.228507 246.84375 
L 325.300904 246.84375 
L 325.300904 240.818506 
L 323.228507 240.818506 
z
" clip-path="url(#pca38c3fc7c)" style="fill: #1f77b4"/>
   </g>
   <g id="patch_130">
    <path d="M 325.300904 246.84375 
L 327.373301 246.84375 
L 327.373301 240.818506 
L 325.300904 240.818506 
z
" clip-path="url(#pca38c3fc7c)" style="fill: #1f77b4"/>
   </g>
   <g id="patch_131">
    <path d="M 327.373301 246.84375 
L 329.445698 246.84375 
L 329.445698 240.818506 
L 327.373301 240.818506 
z
" clip-path="url(#pca38c3fc7c)" style="fill: #1f77b4"/>
   </g>
   <g id="patch_132">
    <path d="M 329.445698 246.84375 
L 331.518095 246.84375 
L 331.518095 240.818506 
L 329.445698 240.818506 
z
" clip-path="url(#pca38c3fc7c)" style="fill: #1f77b4"/>
   </g>
   <g id="patch_133">
    <path d="M 331.518095 246.84375 
L 333.590492 246.84375 
L 333.590492 236.801676 
L 331.518095 236.801676 
z
" clip-path="url(#pca38c3fc7c)" style="fill: #1f77b4"/>
   </g>
   <g id="patch_134">
    <path d="M 333.590492 246.84375 
L 335.662889 246.84375 
L 335.662889 234.793261 
L 333.590492 234.793261 
z
" clip-path="url(#pca38c3fc7c)" style="fill: #1f77b4"/>
   </g>
   <g id="patch_135">
    <path d="M 335.662889 246.84375 
L 337.735286 246.84375 
L 337.735286 236.801676 
L 335.662889 236.801676 
z
" clip-path="url(#pca38c3fc7c)" style="fill: #1f77b4"/>
   </g>
   <g id="patch_136">
    <path d="M 337.735286 246.84375 
L 339.807683 246.84375 
L 339.807683 240.818506 
L 337.735286 240.818506 
z
" clip-path="url(#pca38c3fc7c)" style="fill: #1f77b4"/>
   </g>
   <g id="patch_137">
    <path d="M 339.807683 246.84375 
L 341.88008 246.84375 
L 341.88008 238.810091 
L 339.807683 238.810091 
z
" clip-path="url(#pca38c3fc7c)" style="fill: #1f77b4"/>
   </g>
   <g id="patch_138">
    <path d="M 341.88008 246.84375 
L 343.952478 246.84375 
L 343.952478 234.793261 
L 341.88008 234.793261 
z
" clip-path="url(#pca38c3fc7c)" style="fill: #1f77b4"/>
   </g>
   <g id="patch_139">
    <path d="M 343.952478 246.84375 
L 346.024875 246.84375 
L 346.024875 230.776432 
L 343.952478 230.776432 
z
" clip-path="url(#pca38c3fc7c)" style="fill: #1f77b4"/>
   </g>
   <g id="patch_140">
    <path d="M 346.024875 246.84375 
L 348.097272 246.84375 
L 348.097272 234.793261 
L 346.024875 234.793261 
z
" clip-path="url(#pca38c3fc7c)" style="fill: #1f77b4"/>
   </g>
   <g id="patch_141">
    <path d="M 348.097272 246.84375 
L 350.169669 246.84375 
L 350.169669 240.818506 
L 348.097272 240.818506 
z
" clip-path="url(#pca38c3fc7c)" style="fill: #1f77b4"/>
   </g>
   <g id="patch_142">
    <path d="M 350.169669 246.84375 
L 352.242066 246.84375 
L 352.242066 228.768017 
L 350.169669 228.768017 
z
" clip-path="url(#pca38c3fc7c)" style="fill: #1f77b4"/>
   </g>
   <g id="patch_143">
    <path d="M 352.242066 246.84375 
L 354.314463 246.84375 
L 354.314463 244.835335 
L 352.242066 244.835335 
z
" clip-path="url(#pca38c3fc7c)" style="fill: #1f77b4"/>
   </g>
   <g id="patch_144">
    <path d="M 354.314463 246.84375 
L 356.38686 246.84375 
L 356.38686 236.801676 
L 354.314463 236.801676 
z
" clip-path="url(#pca38c3fc7c)" style="fill: #1f77b4"/>
   </g>
   <g id="patch_145">
    <path d="M 356.38686 246.84375 
L 358.459257 246.84375 
L 358.459257 242.82692 
L 356.38686 242.82692 
z
" clip-path="url(#pca38c3fc7c)" style="fill: #1f77b4"/>
   </g>
   <g id="patch_146">
    <path d="M 358.459257 246.84375 
L 360.531654 246.84375 
L 360.531654 246.84375 
L 358.459257 246.84375 
z
" clip-path="url(#pca38c3fc7c)" style="fill: #1f77b4"/>
   </g>
   <g id="patch_147">
    <path d="M 360.531654 246.84375 
L 362.604051 246.84375 
L 362.604051 244.835335 
L 360.531654 244.835335 
z
" clip-path="url(#pca38c3fc7c)" style="fill: #1f77b4"/>
   </g>
   <g id="patch_148">
    <path d="M 362.604051 246.84375 
L 364.676448 246.84375 
L 364.676448 238.810091 
L 362.604051 238.810091 
z
" clip-path="url(#pca38c3fc7c)" style="fill: #1f77b4"/>
   </g>
   <g id="patch_149">
    <path d="M 364.676448 246.84375 
L 366.748845 246.84375 
L 366.748845 238.810091 
L 364.676448 238.810091 
z
" clip-path="url(#pca38c3fc7c)" style="fill: #1f77b4"/>
   </g>
   <g id="patch_150">
    <path d="M 366.748845 246.84375 
L 368.821243 246.84375 
L 368.821243 242.82692 
L 366.748845 242.82692 
z
" clip-path="url(#pca38c3fc7c)" style="fill: #1f77b4"/>
   </g>
   <g id="patch_151">
    <path d="M 368.821243 246.84375 
L 370.89364 246.84375 
L 370.89364 242.82692 
L 368.821243 242.82692 
z
" clip-path="url(#pca38c3fc7c)" style="fill: #1f77b4"/>
   </g>
   <g id="patch_152">
    <path d="M 370.89364 246.84375 
L 372.966037 246.84375 
L 372.966037 240.818506 
L 370.89364 240.818506 
z
" clip-path="url(#pca38c3fc7c)" style="fill: #1f77b4"/>
   </g>
   <g id="patch_153">
    <path d="M 372.966037 246.84375 
L 375.038434 246.84375 
L 375.038434 246.84375 
L 372.966037 246.84375 
z
" clip-path="url(#pca38c3fc7c)" style="fill: #1f77b4"/>
   </g>
   <g id="patch_154">
    <path d="M 375.038434 246.84375 
L 377.110831 246.84375 
L 377.110831 238.810091 
L 375.038434 238.810091 
z
" clip-path="url(#pca38c3fc7c)" style="fill: #1f77b4"/>
   </g>
   <g id="patch_155">
    <path d="M 377.110831 246.84375 
L 379.183228 246.84375 
L 379.183228 242.82692 
L 377.110831 242.82692 
z
" clip-path="url(#pca38c3fc7c)" style="fill: #1f77b4"/>
   </g>
   <g id="patch_156">
    <path d="M 379.183228 246.84375 
L 381.255625 246.84375 
L 381.255625 244.835335 
L 379.183228 244.835335 
z
" clip-path="url(#pca38c3fc7c)" style="fill: #1f77b4"/>
   </g>
   <g id="patch_157">
    <path d="M 381.255625 246.84375 
L 383.328022 246.84375 
L 383.328022 240.818506 
L 381.255625 240.818506 
z
" clip-path="url(#pca38c3fc7c)" style="fill: #1f77b4"/>
   </g>
   <g id="patch_158">
    <path d="M 383.328022 246.84375 
L 385.400419 246.84375 
L 385.400419 240.818506 
L 383.328022 240.818506 
z
" clip-path="url(#pca38c3fc7c)" style="fill: #1f77b4"/>
   </g>
   <g id="patch_159">
    <path d="M 385.400419 246.84375 
L 387.472816 246.84375 
L 387.472816 246.84375 
L 385.400419 246.84375 
z
" clip-path="url(#pca38c3fc7c)" style="fill: #1f77b4"/>
   </g>
   <g id="patch_160">
    <path d="M 387.472816 246.84375 
L 389.545213 246.84375 
L 389.545213 242.82692 
L 387.472816 242.82692 
z
" clip-path="url(#pca38c3fc7c)" style="fill: #1f77b4"/>
   </g>
   <g id="patch_161">
    <path d="M 389.545213 246.84375 
L 391.61761 246.84375 
L 391.61761 240.818506 
L 389.545213 240.818506 
z
" clip-path="url(#pca38c3fc7c)" style="fill: #1f77b4"/>
   </g>
   <g id="patch_162">
    <path d="M 391.61761 246.84375 
L 393.690008 246.84375 
L 393.690008 246.84375 
L 391.61761 246.84375 
z
" clip-path="url(#pca38c3fc7c)" style="fill: #1f77b4"/>
   </g>
   <g id="patch_163">
    <path d="M 393.690008 246.84375 
L 395.762405 246.84375 
L 395.762405 244.835335 
L 393.690008 244.835335 
z
" clip-path="url(#pca38c3fc7c)" style="fill: #1f77b4"/>
   </g>
   <g id="patch_164">
    <path d="M 395.762405 246.84375 
L 397.834802 246.84375 
L 397.834802 242.82692 
L 395.762405 242.82692 
z
" clip-path="url(#pca38c3fc7c)" style="fill: #1f77b4"/>
   </g>
   <g id="patch_165">
    <path d="M 397.834802 246.84375 
L 399.907199 246.84375 
L 399.907199 246.84375 
L 397.834802 246.84375 
z
" clip-path="url(#pca38c3fc7c)" style="fill: #1f77b4"/>
   </g>
   <g id="patch_166">
    <path d="M 399.907199 246.84375 
L 401.979596 246.84375 
L 401.979596 240.818506 
L 399.907199 240.818506 
z
" clip-path="url(#pca38c3fc7c)" style="fill: #1f77b4"/>
   </g>
   <g id="patch_167">
    <path d="M 401.979596 246.84375 
L 404.051993 246.84375 
L 404.051993 244.835335 
L 401.979596 244.835335 
z
" clip-path="url(#pca38c3fc7c)" style="fill: #1f77b4"/>
   </g>
   <g id="patch_168">
    <path d="M 404.051993 246.84375 
L 406.12439 246.84375 
L 406.12439 240.818506 
L 404.051993 240.818506 
z
" clip-path="url(#pca38c3fc7c)" style="fill: #1f77b4"/>
   </g>
   <g id="patch_169">
    <path d="M 406.12439 246.84375 
L 408.196787 246.84375 
L 408.196787 246.84375 
L 406.12439 246.84375 
z
" clip-path="url(#pca38c3fc7c)" style="fill: #1f77b4"/>
   </g>
   <g id="patch_170">
    <path d="M 408.196787 246.84375 
L 410.269184 246.84375 
L 410.269184 246.84375 
L 408.196787 246.84375 
z
" clip-path="url(#pca38c3fc7c)" style="fill: #1f77b4"/>
   </g>
   <g id="patch_171">
    <path d="M 410.269184 246.84375 
L 412.341581 246.84375 
L 412.341581 246.84375 
L 410.269184 246.84375 
z
" clip-path="url(#pca38c3fc7c)" style="fill: #1f77b4"/>
   </g>
   <g id="patch_172">
    <path d="M 412.341581 246.84375 
L 414.413978 246.84375 
L 414.413978 244.835335 
L 412.341581 244.835335 
z
" clip-path="url(#pca38c3fc7c)" style="fill: #1f77b4"/>
   </g>
   <g id="patch_173">
    <path d="M 414.413978 246.84375 
L 416.486375 246.84375 
L 416.486375 246.84375 
L 414.413978 246.84375 
z
" clip-path="url(#pca38c3fc7c)" style="fill: #1f77b4"/>
   </g>
   <g id="patch_174">
    <path d="M 416.486375 246.84375 
L 418.558773 246.84375 
L 418.558773 244.835335 
L 416.486375 244.835335 
z
" clip-path="url(#pca38c3fc7c)" style="fill: #1f77b4"/>
   </g>
   <g id="patch_175">
    <path d="M 418.558773 246.84375 
L 420.63117 246.84375 
L 420.63117 242.82692 
L 418.558773 242.82692 
z
" clip-path="url(#pca38c3fc7c)" style="fill: #1f77b4"/>
   </g>
   <g id="patch_176">
    <path d="M 420.63117 246.84375 
L 422.703567 246.84375 
L 422.703567 246.84375 
L 420.63117 246.84375 
z
" clip-path="url(#pca38c3fc7c)" style="fill: #1f77b4"/>
   </g>
   <g id="patch_177">
    <path d="M 422.703567 246.84375 
L 424.775964 246.84375 
L 424.775964 244.835335 
L 422.703567 244.835335 
z
" clip-path="url(#pca38c3fc7c)" style="fill: #1f77b4"/>
   </g>
   <g id="patch_178">
    <path d="M 424.775964 246.84375 
L 426.848361 246.84375 
L 426.848361 244.835335 
L 424.775964 244.835335 
z
" clip-path="url(#pca38c3fc7c)" style="fill: #1f77b4"/>
   </g>
   <g id="patch_179">
    <path d="M 426.848361 246.84375 
L 428.920758 246.84375 
L 428.920758 246.84375 
L 426.848361 246.84375 
z
" clip-path="url(#pca38c3fc7c)" style="fill: #1f77b4"/>
   </g>
   <g id="patch_180">
    <path d="M 428.920758 246.84375 
L 430.993155 246.84375 
L 430.993155 242.82692 
L 428.920758 242.82692 
z
" clip-path="url(#pca38c3fc7c)" style="fill: #1f77b4"/>
   </g>
   <g id="patch_181">
    <path d="M 430.993155 246.84375 
L 433.065552 246.84375 
L 433.065552 244.835335 
L 430.993155 244.835335 
z
" clip-path="url(#pca38c3fc7c)" style="fill: #1f77b4"/>
   </g>
   <g id="patch_182">
    <path d="M 433.065552 246.84375 
L 435.137949 246.84375 
L 435.137949 246.84375 
L 433.065552 246.84375 
z
" clip-path="url(#pca38c3fc7c)" style="fill: #1f77b4"/>
   </g>
   <g id="patch_183">
    <path d="M 435.137949 246.84375 
L 437.210346 246.84375 
L 437.210346 244.835335 
L 435.137949 244.835335 
z
" clip-path="url(#pca38c3fc7c)" style="fill: #1f77b4"/>
   </g>
   <g id="patch_184">
    <path d="M 437.210346 246.84375 
L 439.282743 246.84375 
L 439.282743 246.84375 
L 437.210346 246.84375 
z
" clip-path="url(#pca38c3fc7c)" style="fill: #1f77b4"/>
   </g>
   <g id="patch_185">
    <path d="M 439.282743 246.84375 
L 441.35514 246.84375 
L 441.35514 246.84375 
L 439.282743 246.84375 
z
" clip-path="url(#pca38c3fc7c)" style="fill: #1f77b4"/>
   </g>
   <g id="patch_186">
    <path d="M 441.35514 246.84375 
L 443.427538 246.84375 
L 443.427538 246.84375 
L 441.35514 246.84375 
z
" clip-path="url(#pca38c3fc7c)" style="fill: #1f77b4"/>
   </g>
   <g id="patch_187">
    <path d="M 443.427538 246.84375 
L 445.499935 246.84375 
L 445.499935 246.84375 
L 443.427538 246.84375 
z
" clip-path="url(#pca38c3fc7c)" style="fill: #1f77b4"/>
   </g>
   <g id="patch_188">
    <path d="M 445.499935 246.84375 
L 447.572332 246.84375 
L 447.572332 246.84375 
L 445.499935 246.84375 
z
" clip-path="url(#pca38c3fc7c)" style="fill: #1f77b4"/>
   </g>
   <g id="patch_189">
    <path d="M 447.572332 246.84375 
L 449.644729 246.84375 
L 449.644729 242.82692 
L 447.572332 242.82692 
z
" clip-path="url(#pca38c3fc7c)" style="fill: #1f77b4"/>
   </g>
   <g id="patch_190">
    <path d="M 449.644729 246.84375 
L 451.717126 246.84375 
L 451.717126 246.84375 
L 449.644729 246.84375 
z
" clip-path="url(#pca38c3fc7c)" style="fill: #1f77b4"/>
   </g>
   <g id="patch_191">
    <path d="M 451.717126 246.84375 
L 453.789523 246.84375 
L 453.789523 244.835335 
L 451.717126 244.835335 
z
" clip-path="url(#pca38c3fc7c)" style="fill: #1f77b4"/>
   </g>
   <g id="patch_192">
    <path d="M 453.789523 246.84375 
L 455.86192 246.84375 
L 455.86192 244.835335 
L 453.789523 244.835335 
z
" clip-path="url(#pca38c3fc7c)" style="fill: #1f77b4"/>
   </g>
   <g id="patch_193">
    <path d="M 455.86192 246.84375 
L 457.934317 246.84375 
L 457.934317 244.835335 
L 455.86192 244.835335 
z
" clip-path="url(#pca38c3fc7c)" style="fill: #1f77b4"/>
   </g>
   <g id="patch_194">
    <path d="M 457.934317 246.84375 
L 460.006714 246.84375 
L 460.006714 246.84375 
L 457.934317 246.84375 
z
" clip-path="url(#pca38c3fc7c)" style="fill: #1f77b4"/>
   </g>
   <g id="patch_195">
    <path d="M 460.006714 246.84375 
L 462.079111 246.84375 
L 462.079111 246.84375 
L 460.006714 246.84375 
z
" clip-path="url(#pca38c3fc7c)" style="fill: #1f77b4"/>
   </g>
   <g id="patch_196">
    <path d="M 462.079111 246.84375 
L 464.151508 246.84375 
L 464.151508 242.82692 
L 462.079111 242.82692 
z
" clip-path="url(#pca38c3fc7c)" style="fill: #1f77b4"/>
   </g>
   <g id="patch_197">
    <path d="M 464.151508 246.84375 
L 466.223905 246.84375 
L 466.223905 244.835335 
L 464.151508 244.835335 
z
" clip-path="url(#pca38c3fc7c)" style="fill: #1f77b4"/>
   </g>
   <g id="patch_198">
    <path d="M 466.223905 246.84375 
L 468.296303 246.84375 
L 468.296303 244.835335 
L 466.223905 244.835335 
z
" clip-path="url(#pca38c3fc7c)" style="fill: #1f77b4"/>
   </g>
   <g id="patch_199">
    <path d="M 468.296303 246.84375 
L 470.3687 246.84375 
L 470.3687 244.835335 
L 468.296303 244.835335 
z
" clip-path="url(#pca38c3fc7c)" style="fill: #1f77b4"/>
   </g>
   <g id="patch_200">
    <path d="M 470.3687 246.84375 
L 472.441097 246.84375 
L 472.441097 246.84375 
L 470.3687 246.84375 
z
" clip-path="url(#pca38c3fc7c)" style="fill: #1f77b4"/>
   </g>
   <g id="patch_201">
    <path d="M 472.441097 246.84375 
L 474.513494 246.84375 
L 474.513494 246.84375 
L 472.441097 246.84375 
z
" clip-path="url(#pca38c3fc7c)" style="fill: #1f77b4"/>
   </g>
   <g id="patch_202">
    <path d="M 474.513494 246.84375 
L 476.585891 246.84375 
L 476.585891 244.835335 
L 474.513494 244.835335 
z
" clip-path="url(#pca38c3fc7c)" style="fill: #1f77b4"/>
   </g>
   <g id="patch_203">
    <path d="M 476.585891 246.84375 
L 478.658288 246.84375 
L 478.658288 246.84375 
L 476.585891 246.84375 
z
" clip-path="url(#pca38c3fc7c)" style="fill: #1f77b4"/>
   </g>
   <g id="patch_204">
    <path d="M 478.658288 246.84375 
L 480.730685 246.84375 
L 480.730685 246.84375 
L 478.658288 246.84375 
z
" clip-path="url(#pca38c3fc7c)" style="fill: #1f77b4"/>
   </g>
   <g id="patch_205">
    <path d="M 480.730685 246.84375 
L 482.803082 246.84375 
L 482.803082 244.835335 
L 480.730685 244.835335 
z
" clip-path="url(#pca38c3fc7c)" style="fill: #1f77b4"/>
   </g>
   <g id="patch_206">
    <path d="M 482.803082 246.84375 
L 484.875479 246.84375 
L 484.875479 246.84375 
L 482.803082 246.84375 
z
" clip-path="url(#pca38c3fc7c)" style="fill: #1f77b4"/>
   </g>
   <g id="patch_207">
    <path d="M 484.875479 246.84375 
L 486.947876 246.84375 
L 486.947876 246.84375 
L 484.875479 246.84375 
z
" clip-path="url(#pca38c3fc7c)" style="fill: #1f77b4"/>
   </g>
   <g id="patch_208">
    <path d="M 486.947876 246.84375 
L 489.020273 246.84375 
L 489.020273 246.84375 
L 486.947876 246.84375 
z
" clip-path="url(#pca38c3fc7c)" style="fill: #1f77b4"/>
   </g>
   <g id="patch_209">
    <path d="M 489.020273 246.84375 
L 491.09267 246.84375 
L 491.09267 246.84375 
L 489.020273 246.84375 
z
" clip-path="url(#pca38c3fc7c)" style="fill: #1f77b4"/>
   </g>
   <g id="patch_210">
    <path d="M 491.09267 246.84375 
L 493.165067 246.84375 
L 493.165067 244.835335 
L 491.09267 244.835335 
z
" clip-path="url(#pca38c3fc7c)" style="fill: #1f77b4"/>
   </g>
   <g id="patch_211">
    <path d="M 493.165067 246.84375 
L 495.237465 246.84375 
L 495.237465 246.84375 
L 493.165067 246.84375 
z
" clip-path="url(#pca38c3fc7c)" style="fill: #1f77b4"/>
   </g>
   <g id="patch_212">
    <path d="M 495.237465 246.84375 
L 497.309862 246.84375 
L 497.309862 246.84375 
L 495.237465 246.84375 
z
" clip-path="url(#pca38c3fc7c)" style="fill: #1f77b4"/>
   </g>
   <g id="patch_213">
    <path d="M 497.309862 246.84375 
L 499.382259 246.84375 
L 499.382259 246.84375 
L 497.309862 246.84375 
z
" clip-path="url(#pca38c3fc7c)" style="fill: #1f77b4"/>
   </g>
   <g id="patch_214">
    <path d="M 499.382259 246.84375 
L 501.454656 246.84375 
L 501.454656 244.835335 
L 499.382259 244.835335 
z
" clip-path="url(#pca38c3fc7c)" style="fill: #1f77b4"/>
   </g>
   <g id="patch_215">
    <path d="M 501.454656 246.84375 
L 503.527053 246.84375 
L 503.527053 246.84375 
L 501.454656 246.84375 
z
" clip-path="url(#pca38c3fc7c)" style="fill: #1f77b4"/>
   </g>
   <g id="patch_216">
    <path d="M 503.527053 246.84375 
L 505.59945 246.84375 
L 505.59945 246.84375 
L 503.527053 246.84375 
z
" clip-path="url(#pca38c3fc7c)" style="fill: #1f77b4"/>
   </g>
   <g id="patch_217">
    <path d="M 505.59945 246.84375 
L 507.671847 246.84375 
L 507.671847 246.84375 
L 505.59945 246.84375 
z
" clip-path="url(#pca38c3fc7c)" style="fill: #1f77b4"/>
   </g>
   <g id="patch_218">
    <path d="M 507.671847 246.84375 
L 509.744244 246.84375 
L 509.744244 246.84375 
L 507.671847 246.84375 
z
" clip-path="url(#pca38c3fc7c)" style="fill: #1f77b4"/>
   </g>
   <g id="patch_219">
    <path d="M 509.744244 246.84375 
L 511.816641 246.84375 
L 511.816641 246.84375 
L 509.744244 246.84375 
z
" clip-path="url(#pca38c3fc7c)" style="fill: #1f77b4"/>
   </g>
   <g id="patch_220">
    <path d="M 511.816641 246.84375 
L 513.889038 246.84375 
L 513.889038 246.84375 
L 511.816641 246.84375 
z
" clip-path="url(#pca38c3fc7c)" style="fill: #1f77b4"/>
   </g>
   <g id="patch_221">
    <path d="M 513.889038 246.84375 
L 515.961435 246.84375 
L 515.961435 244.835335 
L 513.889038 244.835335 
z
" clip-path="url(#pca38c3fc7c)" style="fill: #1f77b4"/>
   </g>
   <g id="patch_222">
    <path d="M 515.961435 246.84375 
L 518.033832 246.84375 
L 518.033832 244.835335 
L 515.961435 244.835335 
z
" clip-path="url(#pca38c3fc7c)" style="fill: #1f77b4"/>
   </g>
   <g id="patch_223">
    <path d="M 518.033832 246.84375 
L 520.10623 246.84375 
L 520.10623 244.835335 
L 518.033832 244.835335 
z
" clip-path="url(#pca38c3fc7c)" style="fill: #1f77b4"/>
   </g>
   <g id="patch_224">
    <path d="M 520.10623 246.84375 
L 522.178627 246.84375 
L 522.178627 246.84375 
L 520.10623 246.84375 
z
" clip-path="url(#pca38c3fc7c)" style="fill: #1f77b4"/>
   </g>
   <g id="patch_225">
    <path d="M 522.178627 246.84375 
L 524.251024 246.84375 
L 524.251024 246.84375 
L 522.178627 246.84375 
z
" clip-path="url(#pca38c3fc7c)" style="fill: #1f77b4"/>
   </g>
   <g id="patch_226">
    <path d="M 524.251024 246.84375 
L 526.323421 246.84375 
L 526.323421 246.84375 
L 524.251024 246.84375 
z
" clip-path="url(#pca38c3fc7c)" style="fill: #1f77b4"/>
   </g>
   <g id="patch_227">
    <path d="M 526.323421 246.84375 
L 528.395818 246.84375 
L 528.395818 246.84375 
L 526.323421 246.84375 
z
" clip-path="url(#pca38c3fc7c)" style="fill: #1f77b4"/>
   </g>
   <g id="patch_228">
    <path d="M 528.395818 246.84375 
L 530.468215 246.84375 
L 530.468215 246.84375 
L 528.395818 246.84375 
z
" clip-path="url(#pca38c3fc7c)" style="fill: #1f77b4"/>
   </g>
   <g id="patch_229">
    <path d="M 530.468215 246.84375 
L 532.540612 246.84375 
L 532.540612 246.84375 
L 530.468215 246.84375 
z
" clip-path="url(#pca38c3fc7c)" style="fill: #1f77b4"/>
   </g>
   <g id="patch_230">
    <path d="M 532.540612 246.84375 
L 534.613009 246.84375 
L 534.613009 246.84375 
L 532.540612 246.84375 
z
" clip-path="url(#pca38c3fc7c)" style="fill: #1f77b4"/>
   </g>
   <g id="patch_231">
    <path d="M 534.613009 246.84375 
L 536.685406 246.84375 
L 536.685406 244.835335 
L 534.613009 244.835335 
z
" clip-path="url(#pca38c3fc7c)" style="fill: #1f77b4"/>
   </g>
   <g id="patch_232">
    <path d="M 536.685406 246.84375 
L 538.757803 246.84375 
L 538.757803 246.84375 
L 536.685406 246.84375 
z
" clip-path="url(#pca38c3fc7c)" style="fill: #1f77b4"/>
   </g>
   <g id="patch_233">
    <path d="M 538.757803 246.84375 
L 540.8302 246.84375 
L 540.8302 246.84375 
L 538.757803 246.84375 
z
" clip-path="url(#pca38c3fc7c)" style="fill: #1f77b4"/>
   </g>
   <g id="patch_234">
    <path d="M 540.8302 246.84375 
L 542.902597 246.84375 
L 542.902597 246.84375 
L 540.8302 246.84375 
z
" clip-path="url(#pca38c3fc7c)" style="fill: #1f77b4"/>
   </g>
   <g id="patch_235">
    <path d="M 542.902597 246.84375 
L 544.974995 246.84375 
L 544.974995 246.84375 
L 542.902597 246.84375 
z
" clip-path="url(#pca38c3fc7c)" style="fill: #1f77b4"/>
   </g>
   <g id="patch_236">
    <path d="M 544.974995 246.84375 
L 547.047392 246.84375 
L 547.047392 246.84375 
L 544.974995 246.84375 
z
" clip-path="url(#pca38c3fc7c)" style="fill: #1f77b4"/>
   </g>
   <g id="patch_237">
    <path d="M 547.047392 246.84375 
L 549.119789 246.84375 
L 549.119789 246.84375 
L 547.047392 246.84375 
z
" clip-path="url(#pca38c3fc7c)" style="fill: #1f77b4"/>
   </g>
   <g id="patch_238">
    <path d="M 549.119789 246.84375 
L 551.192186 246.84375 
L 551.192186 246.84375 
L 549.119789 246.84375 
z
" clip-path="url(#pca38c3fc7c)" style="fill: #1f77b4"/>
   </g>
   <g id="patch_239">
    <path d="M 551.192186 246.84375 
L 553.264583 246.84375 
L 553.264583 246.84375 
L 551.192186 246.84375 
z
" clip-path="url(#pca38c3fc7c)" style="fill: #1f77b4"/>
   </g>
   <g id="patch_240">
    <path d="M 553.264583 246.84375 
L 555.33698 246.84375 
L 555.33698 246.84375 
L 553.264583 246.84375 
z
" clip-path="url(#pca38c3fc7c)" style="fill: #1f77b4"/>
   </g>
   <g id="patch_241">
    <path d="M 555.33698 246.84375 
L 557.409377 246.84375 
L 557.409377 246.84375 
L 555.33698 246.84375 
z
" clip-path="url(#pca38c3fc7c)" style="fill: #1f77b4"/>
   </g>
   <g id="patch_242">
    <path d="M 557.409377 246.84375 
L 559.481774 246.84375 
L 559.481774 246.84375 
L 557.409377 246.84375 
z
" clip-path="url(#pca38c3fc7c)" style="fill: #1f77b4"/>
   </g>
   <g id="patch_243">
    <path d="M 559.481774 246.84375 
L 561.554171 246.84375 
L 561.554171 246.84375 
L 559.481774 246.84375 
z
" clip-path="url(#pca38c3fc7c)" style="fill: #1f77b4"/>
   </g>
   <g id="patch_244">
    <path d="M 561.554171 246.84375 
L 563.626568 246.84375 
L 563.626568 246.84375 
L 561.554171 246.84375 
z
" clip-path="url(#pca38c3fc7c)" style="fill: #1f77b4"/>
   </g>
   <g id="patch_245">
    <path d="M 563.626568 246.84375 
L 565.698965 246.84375 
L 565.698965 246.84375 
L 563.626568 246.84375 
z
" clip-path="url(#pca38c3fc7c)" style="fill: #1f77b4"/>
   </g>
   <g id="patch_246">
    <path d="M 565.698965 246.84375 
L 567.771362 246.84375 
L 567.771362 246.84375 
L 565.698965 246.84375 
z
" clip-path="url(#pca38c3fc7c)" style="fill: #1f77b4"/>
   </g>
   <g id="patch_247">
    <path d="M 567.771362 246.84375 
L 569.84376 246.84375 
L 569.84376 246.84375 
L 567.771362 246.84375 
z
" clip-path="url(#pca38c3fc7c)" style="fill: #1f77b4"/>
   </g>
   <g id="patch_248">
    <path d="M 569.84376 246.84375 
L 571.916157 246.84375 
L 571.916157 246.84375 
L 569.84376 246.84375 
z
" clip-path="url(#pca38c3fc7c)" style="fill: #1f77b4"/>
   </g>
   <g id="patch_249">
    <path d="M 571.916157 246.84375 
L 573.988554 246.84375 
L 573.988554 246.84375 
L 571.916157 246.84375 
z
" clip-path="url(#pca38c3fc7c)" style="fill: #1f77b4"/>
   </g>
   <g id="patch_250">
    <path d="M 573.988554 246.84375 
L 576.060951 246.84375 
L 576.060951 246.84375 
L 573.988554 246.84375 
z
" clip-path="url(#pca38c3fc7c)" style="fill: #1f77b4"/>
   </g>
   <g id="patch_251">
    <path d="M 576.060951 246.84375 
L 578.133348 246.84375 
L 578.133348 246.84375 
L 576.060951 246.84375 
z
" clip-path="url(#pca38c3fc7c)" style="fill: #1f77b4"/>
   </g>
   <g id="patch_252">
    <path d="M 578.133348 246.84375 
L 580.205745 246.84375 
L 580.205745 244.835335 
L 578.133348 244.835335 
z
" clip-path="url(#pca38c3fc7c)" style="fill: #1f77b4"/>
   </g>
   <g id="matplotlib.axis_1">
    <g id="xtick_1">
     <g id="line2d_1">
      <defs>
       <path id="m795c7ff6b1" d="M 0 0 
L 0 3.5 
" style="stroke: #000000; stroke-width: 0.8"/>
      </defs>
      <g>
       <use xlink:href="#m795c7ff6b1" x="50.565625" y="246.84375" style="stroke: #000000; stroke-width: 0.8"/>
      </g>
     </g>
     <g id="text_1">
      <!-- 0.00 -->
      <g transform="translate(39.432813 261.442187)scale(0.1 -0.1)">
       <defs>
        <path id="DejaVuSans-30" d="M 2034 4250 
Q 1547 4250 1301 3770 
Q 1056 3291 1056 2328 
Q 1056 1369 1301 889 
Q 1547 409 2034 409 
Q 2525 409 2770 889 
Q 3016 1369 3016 2328 
Q 3016 3291 2770 3770 
Q 2525 4250 2034 4250 
z
M 2034 4750 
Q 2819 4750 3233 4129 
Q 3647 3509 3647 2328 
Q 3647 1150 3233 529 
Q 2819 -91 2034 -91 
Q 1250 -91 836 529 
Q 422 1150 422 2328 
Q 422 3509 836 4129 
Q 1250 4750 2034 4750 
z
" transform="scale(0.015625)"/>
        <path id="DejaVuSans-2e" d="M 684 794 
L 1344 794 
L 1344 0 
L 684 0 
L 684 794 
z
" transform="scale(0.015625)"/>
       </defs>
       <use xlink:href="#DejaVuSans-30"/>
       <use xlink:href="#DejaVuSans-2e" x="63.623047"/>
       <use xlink:href="#DejaVuSans-30" x="95.410156"/>
       <use xlink:href="#DejaVuSans-30" x="159.033203"/>
      </g>
     </g>
    </g>
    <g id="xtick_2">
     <g id="line2d_2">
      <g>
       <use xlink:href="#m795c7ff6b1" x="122.465938" y="246.84375" style="stroke: #000000; stroke-width: 0.8"/>
      </g>
     </g>
     <g id="text_2">
      <!-- 0.05 -->
      <g transform="translate(111.333125 261.442187)scale(0.1 -0.1)">
       <defs>
        <path id="DejaVuSans-35" d="M 691 4666 
L 3169 4666 
L 3169 4134 
L 1269 4134 
L 1269 2991 
Q 1406 3038 1543 3061 
Q 1681 3084 1819 3084 
Q 2600 3084 3056 2656 
Q 3513 2228 3513 1497 
Q 3513 744 3044 326 
Q 2575 -91 1722 -91 
Q 1428 -91 1123 -41 
Q 819 9 494 109 
L 494 744 
Q 775 591 1075 516 
Q 1375 441 1709 441 
Q 2250 441 2565 725 
Q 2881 1009 2881 1497 
Q 2881 1984 2565 2268 
Q 2250 2553 1709 2553 
Q 1456 2553 1204 2497 
Q 953 2441 691 2322 
L 691 4666 
z
" transform="scale(0.015625)"/>
       </defs>
       <use xlink:href="#DejaVuSans-30"/>
       <use xlink:href="#DejaVuSans-2e" x="63.623047"/>
       <use xlink:href="#DejaVuSans-30" x="95.410156"/>
       <use xlink:href="#DejaVuSans-35" x="159.033203"/>
      </g>
     </g>
    </g>
    <g id="xtick_3">
     <g id="line2d_3">
      <g>
       <use xlink:href="#m795c7ff6b1" x="194.36625" y="246.84375" style="stroke: #000000; stroke-width: 0.8"/>
      </g>
     </g>
     <g id="text_3">
      <!-- 0.10 -->
      <g transform="translate(183.233438 261.442187)scale(0.1 -0.1)">
       <defs>
        <path id="DejaVuSans-31" d="M 794 531 
L 1825 531 
L 1825 4091 
L 703 3866 
L 703 4441 
L 1819 4666 
L 2450 4666 
L 2450 531 
L 3481 531 
L 3481 0 
L 794 0 
L 794 531 
z
" transform="scale(0.015625)"/>
       </defs>
       <use xlink:href="#DejaVuSans-30"/>
       <use xlink:href="#DejaVuSans-2e" x="63.623047"/>
       <use xlink:href="#DejaVuSans-31" x="95.410156"/>
       <use xlink:href="#DejaVuSans-30" x="159.033203"/>
      </g>
     </g>
    </g>
    <g id="xtick_4">
     <g id="line2d_4">
      <g>
       <use xlink:href="#m795c7ff6b1" x="266.266563" y="246.84375" style="stroke: #000000; stroke-width: 0.8"/>
      </g>
     </g>
     <g id="text_4">
      <!-- 0.15 -->
      <g transform="translate(255.13375 261.442187)scale(0.1 -0.1)">
       <use xlink:href="#DejaVuSans-30"/>
       <use xlink:href="#DejaVuSans-2e" x="63.623047"/>
       <use xlink:href="#DejaVuSans-31" x="95.410156"/>
       <use xlink:href="#DejaVuSans-35" x="159.033203"/>
      </g>
     </g>
    </g>
    <g id="xtick_5">
     <g id="line2d_5">
      <g>
       <use xlink:href="#m795c7ff6b1" x="338.166875" y="246.84375" style="stroke: #000000; stroke-width: 0.8"/>
      </g>
     </g>
     <g id="text_5">
      <!-- 0.20 -->
      <g transform="translate(327.034063 261.442187)scale(0.1 -0.1)">
       <defs>
        <path id="DejaVuSans-32" d="M 1228 531 
L 3431 531 
L 3431 0 
L 469 0 
L 469 531 
Q 828 903 1448 1529 
Q 2069 2156 2228 2338 
Q 2531 2678 2651 2914 
Q 2772 3150 2772 3378 
Q 2772 3750 2511 3984 
Q 2250 4219 1831 4219 
Q 1534 4219 1204 4116 
Q 875 4013 500 3803 
L 500 4441 
Q 881 4594 1212 4672 
Q 1544 4750 1819 4750 
Q 2544 4750 2975 4387 
Q 3406 4025 3406 3419 
Q 3406 3131 3298 2873 
Q 3191 2616 2906 2266 
Q 2828 2175 2409 1742 
Q 1991 1309 1228 531 
z
" transform="scale(0.015625)"/>
       </defs>
       <use xlink:href="#DejaVuSans-30"/>
       <use xlink:href="#DejaVuSans-2e" x="63.623047"/>
       <use xlink:href="#DejaVuSans-32" x="95.410156"/>
       <use xlink:href="#DejaVuSans-30" x="159.033203"/>
      </g>
     </g>
    </g>
    <g id="xtick_6">
     <g id="line2d_6">
      <g>
       <use xlink:href="#m795c7ff6b1" x="410.067188" y="246.84375" style="stroke: #000000; stroke-width: 0.8"/>
      </g>
     </g>
     <g id="text_6">
      <!-- 0.25 -->
      <g transform="translate(398.934375 261.442187)scale(0.1 -0.1)">
       <use xlink:href="#DejaVuSans-30"/>
       <use xlink:href="#DejaVuSans-2e" x="63.623047"/>
       <use xlink:href="#DejaVuSans-32" x="95.410156"/>
       <use xlink:href="#DejaVuSans-35" x="159.033203"/>
      </g>
     </g>
    </g>
    <g id="text_7">
     <!-- Distance (Linf) -->
     <g transform="translate(193.859375 275.120313)scale(0.1 -0.1)">
      <defs>
       <path id="DejaVuSans-44" d="M 1259 4147 
L 1259 519 
L 2022 519 
Q 2988 519 3436 956 
Q 3884 1394 3884 2338 
Q 3884 3275 3436 3711 
Q 2988 4147 2022 4147 
L 1259 4147 
z
M 628 4666 
L 1925 4666 
Q 3281 4666 3915 4102 
Q 4550 3538 4550 2338 
Q 4550 1131 3912 565 
Q 3275 0 1925 0 
L 628 0 
L 628 4666 
z
" transform="scale(0.015625)"/>
       <path id="DejaVuSans-69" d="M 603 3500 
L 1178 3500 
L 1178 0 
L 603 0 
L 603 3500 
z
M 603 4863 
L 1178 4863 
L 1178 4134 
L 603 4134 
L 603 4863 
z
" transform="scale(0.015625)"/>
       <path id="DejaVuSans-73" d="M 2834 3397 
L 2834 2853 
Q 2591 2978 2328 3040 
Q 2066 3103 1784 3103 
Q 1356 3103 1142 2972 
Q 928 2841 928 2578 
Q 928 2378 1081 2264 
Q 1234 2150 1697 2047 
L 1894 2003 
Q 2506 1872 2764 1633 
Q 3022 1394 3022 966 
Q 3022 478 2636 193 
Q 2250 -91 1575 -91 
Q 1294 -91 989 -36 
Q 684 19 347 128 
L 347 722 
Q 666 556 975 473 
Q 1284 391 1588 391 
Q 1994 391 2212 530 
Q 2431 669 2431 922 
Q 2431 1156 2273 1281 
Q 2116 1406 1581 1522 
L 1381 1569 
Q 847 1681 609 1914 
Q 372 2147 372 2553 
Q 372 3047 722 3315 
Q 1072 3584 1716 3584 
Q 2034 3584 2315 3537 
Q 2597 3491 2834 3397 
z
" transform="scale(0.015625)"/>
       <path id="DejaVuSans-74" d="M 1172 4494 
L 1172 3500 
L 2356 3500 
L 2356 3053 
L 1172 3053 
L 1172 1153 
Q 1172 725 1289 603 
Q 1406 481 1766 481 
L 2356 481 
L 2356 0 
L 1766 0 
Q 1100 0 847 248 
Q 594 497 594 1153 
L 594 3053 
L 172 3053 
L 172 3500 
L 594 3500 
L 594 4494 
L 1172 4494 
z
" transform="scale(0.015625)"/>
       <path id="DejaVuSans-61" d="M 2194 1759 
Q 1497 1759 1228 1600 
Q 959 1441 959 1056 
Q 959 750 1161 570 
Q 1363 391 1709 391 
Q 2188 391 2477 730 
Q 2766 1069 2766 1631 
L 2766 1759 
L 2194 1759 
z
M 3341 1997 
L 3341 0 
L 2766 0 
L 2766 531 
Q 2569 213 2275 61 
Q 1981 -91 1556 -91 
Q 1019 -91 701 211 
Q 384 513 384 1019 
Q 384 1609 779 1909 
Q 1175 2209 1959 2209 
L 2766 2209 
L 2766 2266 
Q 2766 2663 2505 2880 
Q 2244 3097 1772 3097 
Q 1472 3097 1187 3025 
Q 903 2953 641 2809 
L 641 3341 
Q 956 3463 1253 3523 
Q 1550 3584 1831 3584 
Q 2591 3584 2966 3190 
Q 3341 2797 3341 1997 
z
" transform="scale(0.015625)"/>
       <path id="DejaVuSans-6e" d="M 3513 2113 
L 3513 0 
L 2938 0 
L 2938 2094 
Q 2938 2591 2744 2837 
Q 2550 3084 2163 3084 
Q 1697 3084 1428 2787 
Q 1159 2491 1159 1978 
L 1159 0 
L 581 0 
L 581 3500 
L 1159 3500 
L 1159 2956 
Q 1366 3272 1645 3428 
Q 1925 3584 2291 3584 
Q 2894 3584 3203 3211 
Q 3513 2838 3513 2113 
z
" transform="scale(0.015625)"/>
       <path id="DejaVuSans-63" d="M 3122 3366 
L 3122 2828 
Q 2878 2963 2633 3030 
Q 2388 3097 2138 3097 
Q 1578 3097 1268 2742 
Q 959 2388 959 1747 
Q 959 1106 1268 751 
Q 1578 397 2138 397 
Q 2388 397 2633 464 
Q 2878 531 3122 666 
L 3122 134 
Q 2881 22 2623 -34 
Q 2366 -91 2075 -91 
Q 1284 -91 818 406 
Q 353 903 353 1747 
Q 353 2603 823 3093 
Q 1294 3584 2113 3584 
Q 2378 3584 2631 3529 
Q 2884 3475 3122 3366 
z
" transform="scale(0.015625)"/>
       <path id="DejaVuSans-65" d="M 3597 1894 
L 3597 1613 
L 953 1613 
Q 991 1019 1311 708 
Q 1631 397 2203 397 
Q 2534 397 2845 478 
Q 3156 559 3463 722 
L 3463 178 
Q 3153 47 2828 -22 
Q 2503 -91 2169 -91 
Q 1331 -91 842 396 
Q 353 884 353 1716 
Q 353 2575 817 3079 
Q 1281 3584 2069 3584 
Q 2775 3584 3186 3129 
Q 3597 2675 3597 1894 
z
M 3022 2063 
Q 3016 2534 2758 2815 
Q 2500 3097 2075 3097 
Q 1594 3097 1305 2825 
Q 1016 2553 972 2059 
L 3022 2063 
z
" transform="scale(0.015625)"/>
       <path id="DejaVuSans-20" transform="scale(0.015625)"/>
       <path id="DejaVuSans-28" d="M 1984 4856 
Q 1566 4138 1362 3434 
Q 1159 2731 1159 2009 
Q 1159 1288 1364 580 
Q 1569 -128 1984 -844 
L 1484 -844 
Q 1016 -109 783 600 
Q 550 1309 550 2009 
Q 550 2706 781 3412 
Q 1013 4119 1484 4856 
L 1984 4856 
z
" transform="scale(0.015625)"/>
       <path id="DejaVuSans-4c" d="M 628 4666 
L 1259 4666 
L 1259 531 
L 3531 531 
L 3531 0 
L 628 0 
L 628 4666 
z
" transform="scale(0.015625)"/>
       <path id="DejaVuSans-66" d="M 2375 4863 
L 2375 4384 
L 1825 4384 
Q 1516 4384 1395 4259 
Q 1275 4134 1275 3809 
L 1275 3500 
L 2222 3500 
L 2222 3053 
L 1275 3053 
L 1275 0 
L 697 0 
L 697 3053 
L 147 3053 
L 147 3500 
L 697 3500 
L 697 3744 
Q 697 4328 969 4595 
Q 1241 4863 1831 4863 
L 2375 4863 
z
" transform="scale(0.015625)"/>
       <path id="DejaVuSans-29" d="M 513 4856 
L 1013 4856 
Q 1481 4119 1714 3412 
Q 1947 2706 1947 2009 
Q 1947 1309 1714 600 
Q 1481 -109 1013 -844 
L 513 -844 
Q 928 -128 1133 580 
Q 1338 1288 1338 2009 
Q 1338 2731 1133 3434 
Q 928 4138 513 4856 
z
" transform="scale(0.015625)"/>
      </defs>
      <use xlink:href="#DejaVuSans-44"/>
      <use xlink:href="#DejaVuSans-69" x="77.001953"/>
      <use xlink:href="#DejaVuSans-73" x="104.785156"/>
      <use xlink:href="#DejaVuSans-74" x="156.884766"/>
      <use xlink:href="#DejaVuSans-61" x="196.09375"/>
      <use xlink:href="#DejaVuSans-6e" x="257.373047"/>
      <use xlink:href="#DejaVuSans-63" x="320.751953"/>
      <use xlink:href="#DejaVuSans-65" x="375.732422"/>
      <use xlink:href="#DejaVuSans-20" x="437.255859"/>
      <use xlink:href="#DejaVuSans-28" x="469.042969"/>
      <use xlink:href="#DejaVuSans-4c" x="508.056641"/>
      <use xlink:href="#DejaVuSans-69" x="563.769531"/>
      <use xlink:href="#DejaVuSans-6e" x="591.552734"/>
      <use xlink:href="#DejaVuSans-66" x="654.931641"/>
      <use xlink:href="#DejaVuSans-29" x="690.136719"/>
     </g>
    </g>
   </g>
   <g id="matplotlib.axis_2">
    <g id="ytick_1">
     <g id="line2d_7">
      <defs>
       <path id="m4790e8b34b" d="M 0 0 
L -3.5 0 
" style="stroke: #000000; stroke-width: 0.8"/>
      </defs>
      <g>
       <use xlink:href="#m4790e8b34b" x="50.565625" y="246.84375" style="stroke: #000000; stroke-width: 0.8"/>
      </g>
     </g>
     <g id="text_8">
      <!-- 0 -->
      <g transform="translate(37.203125 250.642969)scale(0.1 -0.1)">
       <use xlink:href="#DejaVuSans-30"/>
      </g>
     </g>
    </g>
    <g id="ytick_2">
     <g id="line2d_8">
      <g>
       <use xlink:href="#m4790e8b34b" x="50.565625" y="206.675455" style="stroke: #000000; stroke-width: 0.8"/>
      </g>
     </g>
     <g id="text_9">
      <!-- 20 -->
      <g transform="translate(30.840625 210.474673)scale(0.1 -0.1)">
       <use xlink:href="#DejaVuSans-32"/>
       <use xlink:href="#DejaVuSans-30" x="63.623047"/>
      </g>
     </g>
    </g>
    <g id="ytick_3">
     <g id="line2d_9">
      <g>
       <use xlink:href="#m4790e8b34b" x="50.565625" y="166.507159" style="stroke: #000000; stroke-width: 0.8"/>
      </g>
     </g>
     <g id="text_10">
      <!-- 40 -->
      <g transform="translate(30.840625 170.306378)scale(0.1 -0.1)">
       <defs>
        <path id="DejaVuSans-34" d="M 2419 4116 
L 825 1625 
L 2419 1625 
L 2419 4116 
z
M 2253 4666 
L 3047 4666 
L 3047 1625 
L 3713 1625 
L 3713 1100 
L 3047 1100 
L 3047 0 
L 2419 0 
L 2419 1100 
L 313 1100 
L 313 1709 
L 2253 4666 
z
" transform="scale(0.015625)"/>
       </defs>
       <use xlink:href="#DejaVuSans-34"/>
       <use xlink:href="#DejaVuSans-30" x="63.623047"/>
      </g>
     </g>
    </g>
    <g id="ytick_4">
     <g id="line2d_10">
      <g>
       <use xlink:href="#m4790e8b34b" x="50.565625" y="126.338864" style="stroke: #000000; stroke-width: 0.8"/>
      </g>
     </g>
     <g id="text_11">
      <!-- 60 -->
      <g transform="translate(30.840625 130.138082)scale(0.1 -0.1)">
       <defs>
        <path id="DejaVuSans-36" d="M 2113 2584 
Q 1688 2584 1439 2293 
Q 1191 2003 1191 1497 
Q 1191 994 1439 701 
Q 1688 409 2113 409 
Q 2538 409 2786 701 
Q 3034 994 3034 1497 
Q 3034 2003 2786 2293 
Q 2538 2584 2113 2584 
z
M 3366 4563 
L 3366 3988 
Q 3128 4100 2886 4159 
Q 2644 4219 2406 4219 
Q 1781 4219 1451 3797 
Q 1122 3375 1075 2522 
Q 1259 2794 1537 2939 
Q 1816 3084 2150 3084 
Q 2853 3084 3261 2657 
Q 3669 2231 3669 1497 
Q 3669 778 3244 343 
Q 2819 -91 2113 -91 
Q 1303 -91 875 529 
Q 447 1150 447 2328 
Q 447 3434 972 4092 
Q 1497 4750 2381 4750 
Q 2619 4750 2861 4703 
Q 3103 4656 3366 4563 
z
" transform="scale(0.015625)"/>
       </defs>
       <use xlink:href="#DejaVuSans-36"/>
       <use xlink:href="#DejaVuSans-30" x="63.623047"/>
      </g>
     </g>
    </g>
    <g id="ytick_5">
     <g id="line2d_11">
      <g>
       <use xlink:href="#m4790e8b34b" x="50.565625" y="86.170568" style="stroke: #000000; stroke-width: 0.8"/>
      </g>
     </g>
     <g id="text_12">
      <!-- 80 -->
      <g transform="translate(30.840625 89.969787)scale(0.1 -0.1)">
       <defs>
        <path id="DejaVuSans-38" d="M 2034 2216 
Q 1584 2216 1326 1975 
Q 1069 1734 1069 1313 
Q 1069 891 1326 650 
Q 1584 409 2034 409 
Q 2484 409 2743 651 
Q 3003 894 3003 1313 
Q 3003 1734 2745 1975 
Q 2488 2216 2034 2216 
z
M 1403 2484 
Q 997 2584 770 2862 
Q 544 3141 544 3541 
Q 544 4100 942 4425 
Q 1341 4750 2034 4750 
Q 2731 4750 3128 4425 
Q 3525 4100 3525 3541 
Q 3525 3141 3298 2862 
Q 3072 2584 2669 2484 
Q 3125 2378 3379 2068 
Q 3634 1759 3634 1313 
Q 3634 634 3220 271 
Q 2806 -91 2034 -91 
Q 1263 -91 848 271 
Q 434 634 434 1313 
Q 434 1759 690 2068 
Q 947 2378 1403 2484 
z
M 1172 3481 
Q 1172 3119 1398 2916 
Q 1625 2713 2034 2713 
Q 2441 2713 2670 2916 
Q 2900 3119 2900 3481 
Q 2900 3844 2670 4047 
Q 2441 4250 2034 4250 
Q 1625 4250 1398 4047 
Q 1172 3844 1172 3481 
z
" transform="scale(0.015625)"/>
       </defs>
       <use xlink:href="#DejaVuSans-38"/>
       <use xlink:href="#DejaVuSans-30" x="63.623047"/>
      </g>
     </g>
    </g>
    <g id="ytick_6">
     <g id="line2d_12">
      <g>
       <use xlink:href="#m4790e8b34b" x="50.565625" y="46.002273" style="stroke: #000000; stroke-width: 0.8"/>
      </g>
     </g>
     <g id="text_13">
      <!-- 100 -->
      <g transform="translate(24.478125 49.801491)scale(0.1 -0.1)">
       <use xlink:href="#DejaVuSans-31"/>
       <use xlink:href="#DejaVuSans-30" x="63.623047"/>
       <use xlink:href="#DejaVuSans-30" x="127.246094"/>
      </g>
     </g>
    </g>
    <g id="text_14">
     <!-- Frequency of points -->
     <g transform="translate(18.398438 185.564531)rotate(-90)scale(0.1 -0.1)">
      <defs>
       <path id="DejaVuSans-46" d="M 628 4666 
L 3309 4666 
L 3309 4134 
L 1259 4134 
L 1259 2759 
L 3109 2759 
L 3109 2228 
L 1259 2228 
L 1259 0 
L 628 0 
L 628 4666 
z
" transform="scale(0.015625)"/>
       <path id="DejaVuSans-72" d="M 2631 2963 
Q 2534 3019 2420 3045 
Q 2306 3072 2169 3072 
Q 1681 3072 1420 2755 
Q 1159 2438 1159 1844 
L 1159 0 
L 581 0 
L 581 3500 
L 1159 3500 
L 1159 2956 
Q 1341 3275 1631 3429 
Q 1922 3584 2338 3584 
Q 2397 3584 2469 3576 
Q 2541 3569 2628 3553 
L 2631 2963 
z
" transform="scale(0.015625)"/>
       <path id="DejaVuSans-71" d="M 947 1747 
Q 947 1113 1208 752 
Q 1469 391 1925 391 
Q 2381 391 2643 752 
Q 2906 1113 2906 1747 
Q 2906 2381 2643 2742 
Q 2381 3103 1925 3103 
Q 1469 3103 1208 2742 
Q 947 2381 947 1747 
z
M 2906 525 
Q 2725 213 2448 61 
Q 2172 -91 1784 -91 
Q 1150 -91 751 415 
Q 353 922 353 1747 
Q 353 2572 751 3078 
Q 1150 3584 1784 3584 
Q 2172 3584 2448 3432 
Q 2725 3281 2906 2969 
L 2906 3500 
L 3481 3500 
L 3481 -1331 
L 2906 -1331 
L 2906 525 
z
" transform="scale(0.015625)"/>
       <path id="DejaVuSans-75" d="M 544 1381 
L 544 3500 
L 1119 3500 
L 1119 1403 
Q 1119 906 1312 657 
Q 1506 409 1894 409 
Q 2359 409 2629 706 
Q 2900 1003 2900 1516 
L 2900 3500 
L 3475 3500 
L 3475 0 
L 2900 0 
L 2900 538 
Q 2691 219 2414 64 
Q 2138 -91 1772 -91 
Q 1169 -91 856 284 
Q 544 659 544 1381 
z
M 1991 3584 
L 1991 3584 
z
" transform="scale(0.015625)"/>
       <path id="DejaVuSans-79" d="M 2059 -325 
Q 1816 -950 1584 -1140 
Q 1353 -1331 966 -1331 
L 506 -1331 
L 506 -850 
L 844 -850 
Q 1081 -850 1212 -737 
Q 1344 -625 1503 -206 
L 1606 56 
L 191 3500 
L 800 3500 
L 1894 763 
L 2988 3500 
L 3597 3500 
L 2059 -325 
z
" transform="scale(0.015625)"/>
       <path id="DejaVuSans-6f" d="M 1959 3097 
Q 1497 3097 1228 2736 
Q 959 2375 959 1747 
Q 959 1119 1226 758 
Q 1494 397 1959 397 
Q 2419 397 2687 759 
Q 2956 1122 2956 1747 
Q 2956 2369 2687 2733 
Q 2419 3097 1959 3097 
z
M 1959 3584 
Q 2709 3584 3137 3096 
Q 3566 2609 3566 1747 
Q 3566 888 3137 398 
Q 2709 -91 1959 -91 
Q 1206 -91 779 398 
Q 353 888 353 1747 
Q 353 2609 779 3096 
Q 1206 3584 1959 3584 
z
" transform="scale(0.015625)"/>
       <path id="DejaVuSans-70" d="M 1159 525 
L 1159 -1331 
L 581 -1331 
L 581 3500 
L 1159 3500 
L 1159 2969 
Q 1341 3281 1617 3432 
Q 1894 3584 2278 3584 
Q 2916 3584 3314 3078 
Q 3713 2572 3713 1747 
Q 3713 922 3314 415 
Q 2916 -91 2278 -91 
Q 1894 -91 1617 61 
Q 1341 213 1159 525 
z
M 3116 1747 
Q 3116 2381 2855 2742 
Q 2594 3103 2138 3103 
Q 1681 3103 1420 2742 
Q 1159 2381 1159 1747 
Q 1159 1113 1420 752 
Q 1681 391 2138 391 
Q 2594 391 2855 752 
Q 3116 1113 3116 1747 
z
" transform="scale(0.015625)"/>
      </defs>
      <use xlink:href="#DejaVuSans-46"/>
      <use xlink:href="#DejaVuSans-72" x="50.269531"/>
      <use xlink:href="#DejaVuSans-65" x="89.132812"/>
      <use xlink:href="#DejaVuSans-71" x="150.65625"/>
      <use xlink:href="#DejaVuSans-75" x="214.132812"/>
      <use xlink:href="#DejaVuSans-65" x="277.511719"/>
      <use xlink:href="#DejaVuSans-6e" x="339.035156"/>
      <use xlink:href="#DejaVuSans-63" x="402.414062"/>
      <use xlink:href="#DejaVuSans-79" x="457.394531"/>
      <use xlink:href="#DejaVuSans-20" x="516.574219"/>
      <use xlink:href="#DejaVuSans-6f" x="548.361328"/>
      <use xlink:href="#DejaVuSans-66" x="609.542969"/>
      <use xlink:href="#DejaVuSans-20" x="644.748047"/>
      <use xlink:href="#DejaVuSans-70" x="676.535156"/>
      <use xlink:href="#DejaVuSans-6f" x="740.011719"/>
      <use xlink:href="#DejaVuSans-69" x="801.193359"/>
      <use xlink:href="#DejaVuSans-6e" x="828.976562"/>
      <use xlink:href="#DejaVuSans-74" x="892.355469"/>
      <use xlink:href="#DejaVuSans-73" x="931.564453"/>
     </g>
    </g>
   </g>
   <g id="patch_253">
    <path d="M 50.565625 246.84375 
L 50.565625 25.918125 
" style="fill: none; stroke: #000000; stroke-width: 0.8; stroke-linejoin: miter; stroke-linecap: square"/>
   </g>
   <g id="patch_254">
    <path d="M 410.067188 246.84375 
L 410.067188 25.918125 
" style="fill: none; stroke: #000000; stroke-width: 0.8; stroke-linejoin: miter; stroke-linecap: square"/>
   </g>
   <g id="patch_255">
    <path d="M 50.565625 246.84375 
L 410.067188 246.84375 
" style="fill: none; stroke: #000000; stroke-width: 0.8; stroke-linejoin: miter; stroke-linecap: square"/>
   </g>
   <g id="patch_256">
    <path d="M 50.565625 25.918125 
L 410.067188 25.918125 
" style="fill: none; stroke: #000000; stroke-width: 0.8; stroke-linejoin: miter; stroke-linecap: square"/>
   </g>
   <g id="text_15">
    <!-- Class Separation Distribution -->
    <g transform="translate(143.092344 19.918125)scale(0.12 -0.12)">
     <defs>
      <path id="DejaVuSans-43" d="M 4122 4306 
L 4122 3641 
Q 3803 3938 3442 4084 
Q 3081 4231 2675 4231 
Q 1875 4231 1450 3742 
Q 1025 3253 1025 2328 
Q 1025 1406 1450 917 
Q 1875 428 2675 428 
Q 3081 428 3442 575 
Q 3803 722 4122 1019 
L 4122 359 
Q 3791 134 3420 21 
Q 3050 -91 2638 -91 
Q 1578 -91 968 557 
Q 359 1206 359 2328 
Q 359 3453 968 4101 
Q 1578 4750 2638 4750 
Q 3056 4750 3426 4639 
Q 3797 4528 4122 4306 
z
" transform="scale(0.015625)"/>
      <path id="DejaVuSans-6c" d="M 603 4863 
L 1178 4863 
L 1178 0 
L 603 0 
L 603 4863 
z
" transform="scale(0.015625)"/>
      <path id="DejaVuSans-53" d="M 3425 4513 
L 3425 3897 
Q 3066 4069 2747 4153 
Q 2428 4238 2131 4238 
Q 1616 4238 1336 4038 
Q 1056 3838 1056 3469 
Q 1056 3159 1242 3001 
Q 1428 2844 1947 2747 
L 2328 2669 
Q 3034 2534 3370 2195 
Q 3706 1856 3706 1288 
Q 3706 609 3251 259 
Q 2797 -91 1919 -91 
Q 1588 -91 1214 -16 
Q 841 59 441 206 
L 441 856 
Q 825 641 1194 531 
Q 1563 422 1919 422 
Q 2459 422 2753 634 
Q 3047 847 3047 1241 
Q 3047 1584 2836 1778 
Q 2625 1972 2144 2069 
L 1759 2144 
Q 1053 2284 737 2584 
Q 422 2884 422 3419 
Q 422 4038 858 4394 
Q 1294 4750 2059 4750 
Q 2388 4750 2728 4690 
Q 3069 4631 3425 4513 
z
" transform="scale(0.015625)"/>
      <path id="DejaVuSans-62" d="M 3116 1747 
Q 3116 2381 2855 2742 
Q 2594 3103 2138 3103 
Q 1681 3103 1420 2742 
Q 1159 2381 1159 1747 
Q 1159 1113 1420 752 
Q 1681 391 2138 391 
Q 2594 391 2855 752 
Q 3116 1113 3116 1747 
z
M 1159 2969 
Q 1341 3281 1617 3432 
Q 1894 3584 2278 3584 
Q 2916 3584 3314 3078 
Q 3713 2572 3713 1747 
Q 3713 922 3314 415 
Q 2916 -91 2278 -91 
Q 1894 -91 1617 61 
Q 1341 213 1159 525 
L 1159 0 
L 581 0 
L 581 4863 
L 1159 4863 
L 1159 2969 
z
" transform="scale(0.015625)"/>
     </defs>
     <use xlink:href="#DejaVuSans-43"/>
     <use xlink:href="#DejaVuSans-6c" x="69.824219"/>
     <use xlink:href="#DejaVuSans-61" x="97.607422"/>
     <use xlink:href="#DejaVuSans-73" x="158.886719"/>
     <use xlink:href="#DejaVuSans-73" x="210.986328"/>
     <use xlink:href="#DejaVuSans-20" x="263.085938"/>
     <use xlink:href="#DejaVuSans-53" x="294.873047"/>
     <use xlink:href="#DejaVuSans-65" x="358.349609"/>
     <use xlink:href="#DejaVuSans-70" x="419.873047"/>
     <use xlink:href="#DejaVuSans-61" x="483.349609"/>
     <use xlink:href="#DejaVuSans-72" x="544.628906"/>
     <use xlink:href="#DejaVuSans-61" x="585.742188"/>
     <use xlink:href="#DejaVuSans-74" x="647.021484"/>
     <use xlink:href="#DejaVuSans-69" x="686.230469"/>
     <use xlink:href="#DejaVuSans-6f" x="714.013672"/>
     <use xlink:href="#DejaVuSans-6e" x="775.195312"/>
     <use xlink:href="#DejaVuSans-20" x="838.574219"/>
     <use xlink:href="#DejaVuSans-44" x="870.361328"/>
     <use xlink:href="#DejaVuSans-69" x="947.363281"/>
     <use xlink:href="#DejaVuSans-73" x="975.146484"/>
     <use xlink:href="#DejaVuSans-74" x="1027.246094"/>
     <use xlink:href="#DejaVuSans-72" x="1066.455078"/>
     <use xlink:href="#DejaVuSans-69" x="1107.568359"/>
     <use xlink:href="#DejaVuSans-62" x="1135.351562"/>
     <use xlink:href="#DejaVuSans-75" x="1198.828125"/>
     <use xlink:href="#DejaVuSans-74" x="1262.207031"/>
     <use xlink:href="#DejaVuSans-69" x="1301.416016"/>
     <use xlink:href="#DejaVuSans-6f" x="1329.199219"/>
     <use xlink:href="#DejaVuSans-6e" x="1390.380859"/>
    </g>
   </g>
  </g>
 </g>
 <defs>
  <clipPath id="pca38c3fc7c">
   <rect x="50.565625" y="25.918125" width="359.501563" height="220.925625"/>
  </clipPath>
 </defs>
</svg>
